<svg width="84" height="84" viewBox="0 0 84 84" fill="none" xmlns="http://www.w3.org/2000/svg">
<g clip-path="url(#clip0_10_201)">
<path d="M83.2177 0.242431C82.7316 -0.0559984 82.1254 -0.0804437 81.6168 0.177626L0.898192 41.1584C0.309537 41.4573 -0.0427047 42.0799 0.00438113 42.7386C0.051631 43.3972 0.489021 43.9632 1.11426 44.1752L31.1732 54.3624C31.1709 54.3977 31.1678 54.4327 31.1678 54.4686V73.4998C31.1678 74.1615 31.5654 74.7585 32.176 75.0136C32.3803 75.0991 32.595 75.1404 32.8081 75.1404C33.2317 75.1404 33.6483 74.9764 33.9615 74.6669L48.5533 60.2528L81.8329 71.5317C82.0046 71.59 82.1825 71.6185 82.3593 71.6185C82.698 71.6185 83.033 71.5137 83.3153 71.3112C83.7452 71.0031 84 70.5068 84 69.9779V1.64057C84.0001 1.07029 83.704 0.540696 83.2177 0.242431ZM31.9832 51.1724L5.86042 42.319L76.635 6.38689L31.9832 51.1724ZM34.4491 69.5731V55.4728L45.0769 59.0746L34.4491 69.5731ZM80.7189 67.6897L75.1408 65.7991V48.3962C75.1408 47.4902 74.4063 46.7555 73.5001 46.7555C72.594 46.7555 71.8595 47.4902 71.8595 48.3962V64.6869L35.4464 52.346L80.7189 6.93814V67.6897Z" fill="black"/>
<path d="M74.6599 40.8401C74.3548 40.5349 73.9315 40.3594 73.5 40.3594C73.0685 40.3594 72.6452 40.5348 72.3401 40.8401C72.0349 41.1452 71.8594 41.5685 71.8594 42C71.8594 42.4315 72.0349 42.8548 72.3401 43.1598C72.6452 43.4649 73.0685 43.6406 73.5 43.6406C73.9315 43.6406 74.3548 43.4651 74.6599 43.1598C74.9651 42.8548 75.1406 42.4315 75.1406 42C75.1406 41.5685 74.9651 41.1452 74.6599 40.8401Z" fill="black"/>
<path d="M22.8711 61.1288C22.2304 60.4883 21.1916 60.4883 20.5509 61.1288L8.3829 73.2968C7.74224 73.9375 7.74224 74.9763 8.3829 75.6171C8.70332 75.9374 9.12315 76.0977 9.54299 76.0977C9.96282 76.0977 10.3828 75.9374 10.7031 75.6171L22.8711 63.4491C23.5117 62.8085 23.5117 61.7696 22.8711 61.1288Z" fill="black"/>
<path d="M6.65619 77.344C6.35104 77.0388 5.92776 76.8633 5.49627 76.8633C5.06479 76.8633 4.64151 77.0387 4.33635 77.344C4.0312 77.6491 3.85565 78.0724 3.85565 78.5039C3.85565 78.9354 4.0312 79.3587 4.33635 79.6637C4.64151 79.9688 5.06479 80.1445 5.49627 80.1445C5.92776 80.1445 6.35104 79.969 6.65619 79.6637C6.96135 79.3587 7.1369 78.9354 7.1369 78.5039C7.1369 78.0724 6.96135 77.6491 6.65619 77.344Z" fill="black"/>
<path d="M56.6947 69.3056C56.0537 68.6651 55.015 68.665 54.3743 69.3056L42.4808 81.1992C41.8401 81.8398 41.84 82.8787 42.4808 83.5195C42.8012 83.8397 43.2211 84 43.6409 84C44.0607 84 44.4807 83.8397 44.801 83.5195L56.6947 71.626C57.3353 70.9853 57.3353 69.9465 56.6947 69.3056Z" fill="black"/>
</g>
<defs>
<clipPath id="clip0_10_201">
<rect width="84" height="84" fill="white"/>
</clipPath>
</defs>
</svg>
