<svg width="46" height="46" viewBox="0 0 46 46" fill="none" xmlns="http://www.w3.org/2000/svg">
<g clip-path="url(#clip0_23_165)">
<path d="M45.5717 0.13276C45.3055 -0.0306658 44.9736 -0.0440525 44.695 0.0972715L0.492011 22.5391C0.169652 22.7028 -0.023242 23.0438 0.00254306 23.4045C0.028418 23.7651 0.267941 24.0751 0.610335 24.1912L17.0712 29.7699C17.0699 29.7892 17.0682 29.8084 17.0682 29.828V40.2499C17.0682 40.6122 17.2859 40.9392 17.6203 41.0789C17.7322 41.1257 17.8498 41.1483 17.9665 41.1483C18.1985 41.1483 18.4266 41.0585 18.5981 40.889L26.5889 32.9956L44.8134 39.1721C44.9074 39.204 45.0048 39.2197 45.1017 39.2197C45.2871 39.2197 45.4706 39.1623 45.6252 39.0514C45.8606 38.8827 46.0001 38.6109 46.0001 38.3212V0.898407C46.0002 0.58611 45.838 0.296095 45.5717 0.13276ZM17.5148 28.023L3.20942 23.1747L41.9669 3.49758L17.5148 28.023ZM18.8651 38.0996V30.378L24.6851 32.3504L18.8651 38.0996ZM44.2033 37.0682L41.1487 36.0328V26.5027C41.1487 26.0065 40.7464 25.6042 40.2502 25.6042C39.754 25.6042 39.3518 26.0065 39.3518 26.5027V35.4238L19.4113 28.6656L44.2033 3.79946V37.0682Z" fill="black"/>
<path d="M40.8852 22.3648C40.7181 22.1977 40.4863 22.1016 40.25 22.1016C40.0137 22.1016 39.7819 22.1976 39.6148 22.3648C39.4477 22.5319 39.3516 22.7637 39.3516 23C39.3516 23.2363 39.4477 23.4681 39.6148 23.6351C39.7819 23.8022 40.0137 23.8984 40.25 23.8984C40.4863 23.8984 40.7181 23.8023 40.8852 23.6351C41.0523 23.4681 41.1484 23.2363 41.1484 23C41.1484 22.7637 41.0523 22.5319 40.8852 22.3648Z" fill="black"/>
<path d="M12.5248 33.475C12.1739 33.1242 11.605 33.1242 11.2542 33.475L4.59077 40.1384C4.23993 40.4892 4.23993 41.0581 4.59077 41.4091C4.76623 41.5844 4.99614 41.6722 5.22605 41.6722C5.45596 41.6722 5.68596 41.5844 5.86133 41.4091L12.5248 34.7456C12.8756 34.3948 12.8756 33.8259 12.5248 33.475Z" fill="black"/>
<path d="M3.64496 42.355C3.47785 42.1879 3.24605 42.0918 3.00976 42.0918C2.77348 42.0918 2.54168 42.1878 2.37457 42.355C2.20746 42.5221 2.11133 42.7539 2.11133 42.9902C2.11133 43.2265 2.20746 43.4583 2.37457 43.6253C2.54168 43.7924 2.77348 43.8887 3.00976 43.8887C3.24605 43.8887 3.47785 43.7925 3.64496 43.6253C3.81207 43.4583 3.9082 43.2265 3.9082 42.9902C3.9082 42.7539 3.81207 42.5221 3.64496 42.355Z" fill="black"/>
<path d="M31.0472 37.9535C30.6962 37.6028 30.1274 37.6027 29.7765 37.9535L23.2634 44.4666C22.9126 44.8175 22.9125 45.3864 23.2634 45.7373C23.4389 45.9127 23.6688 46.0005 23.8987 46.0005C24.1286 46.0005 24.3586 45.9127 24.534 45.7373L31.0472 39.2242C31.398 38.8733 31.398 38.3045 31.0472 37.9535Z" fill="black"/>
</g>
<defs>
<clipPath id="clip0_23_165">
<rect width="46" height="46" fill="white"/>
</clipPath>
</defs>
</svg>
