<svg width="78" height="78" viewBox="0 0 78 78" fill="none" xmlns="http://www.w3.org/2000/svg">
<path d="M23.8113 16.008C23.7002 16.1757 23.5492 16.3133 23.3719 16.4085C23.1946 16.5036 22.9966 16.5534 22.7953 16.5534H3.65625V63.663C3.65629 64.1785 3.86081 64.673 4.22495 65.0379C4.58908 65.4028 5.0831 65.6084 5.59863 65.6096H14.4938V60.0095C14.4938 59.6862 14.6222 59.3762 14.8508 59.1477C15.0794 58.9191 15.3893 58.7907 15.7126 58.7907H23.5676C23.8908 58.7907 24.2008 58.9191 24.4294 59.1477C24.6579 59.3762 24.7863 59.6862 24.7863 60.0095V65.6096H27.397V45.4174C27.397 45.0941 27.5254 44.7841 27.754 44.5556C27.9826 44.327 28.2926 44.1986 28.6158 44.1986H36.4755C36.7987 44.1986 37.1087 44.327 37.3373 44.5556C37.5659 44.7841 37.6943 45.0941 37.6943 45.4174V65.6096H40.3051V51.4721C40.3051 51.1489 40.4335 50.8389 40.6621 50.6103C40.8907 50.3818 41.2006 50.2534 41.5239 50.2534H49.3792C49.7024 50.2534 50.0124 50.3818 50.241 50.6103C50.4695 50.8389 50.5979 51.1489 50.5979 51.4721V65.6096H53.2091V38.392H51.3875C51.1592 38.3921 50.9354 38.3279 50.7417 38.2069C50.548 38.0859 50.3922 37.913 50.2921 37.7077C50.1919 37.5025 50.1515 37.2732 50.1753 37.0461C50.1991 36.819 50.2863 36.6031 50.4268 36.4231L57.397 27.4969C57.511 27.3509 57.6568 27.2329 57.8232 27.1517C57.9896 27.0705 58.1724 27.0283 58.3576 27.0283C58.5428 27.0283 58.7256 27.0706 58.892 27.1519C59.0585 27.2331 59.2042 27.3512 59.3182 27.4972L66.2848 36.4235C66.4252 36.6034 66.5123 36.8193 66.5361 37.0464C66.5599 37.2735 66.5194 37.5027 66.4192 37.7079C66.3191 37.9131 66.1633 38.086 65.9697 38.2069C65.776 38.3279 65.5523 38.392 65.3239 38.392H63.5019V65.6096H72.3969C72.9131 65.6091 73.4079 65.4038 73.7729 65.0389C74.1379 64.6739 74.3432 64.1791 74.3438 63.663V12.8784H25.8849L23.8113 16.008Z" fill="#EAFAFF"/>
<path d="M19.6423 25.4753C18.0237 25.4745 16.4413 25.9536 15.095 26.8522C13.7488 27.7508 12.6993 29.0285 12.0793 30.5236C11.4593 32.0187 11.2967 33.6641 11.6119 35.2517C11.9271 36.8393 12.7061 38.2977 13.8503 39.4425C14.9945 40.5873 16.4525 41.3671 18.0399 41.6832C19.6273 41.9993 21.2728 41.8375 22.7682 41.2183C24.2637 40.5991 25.5419 39.5503 26.4412 38.2045C27.3406 36.8588 27.8206 35.2766 27.8206 33.658C27.8182 31.4894 26.9559 29.4101 25.4228 27.8762C23.8897 26.3423 21.811 25.4789 19.6423 25.4753Z" fill="#FFE22F"/>
<path d="M72.3969 5.39014H5.59863C5.08367 5.39074 4.58997 5.59558 4.22583 5.95972C3.86169 6.32385 3.65685 6.81755 3.65625 7.33252V14.1159H22.1404L24.2146 10.9863C24.3257 10.8186 24.4767 10.6811 24.6539 10.5859C24.8312 10.4907 25.0292 10.4409 25.2304 10.4409H74.3438V7.33313C74.3427 6.81746 74.1372 6.32327 73.7722 5.95899C73.4072 5.59472 72.9126 5.39014 72.3969 5.39014Z" fill="#C4DAEC"/>
<path d="M72.3969 2.95264H5.59863C4.43742 2.95397 3.32416 3.41585 2.50306 4.23694C1.68196 5.05804 1.22008 6.17131 1.21875 7.33252V63.663C1.21964 64.8247 1.68124 65.9387 2.50231 66.7606C3.32338 67.5824 4.4369 68.0451 5.59863 68.0471H14.4938V72.61H9.85664C9.53341 72.61 9.22341 72.7384 8.99485 72.9669C8.76629 73.1955 8.63789 73.5055 8.63789 73.8287C8.63789 74.152 8.76629 74.462 8.99485 74.6905C9.22341 74.9191 9.53341 75.0475 9.85664 75.0475H68.1434C68.4666 75.0475 68.7766 74.9191 69.0051 74.6905C69.2337 74.462 69.3621 74.152 69.3621 73.8287C69.3621 73.5055 69.2337 73.1955 69.0051 72.9669C68.7766 72.7384 68.4666 72.61 68.1434 72.61H63.5019V68.0471H72.3969C73.5593 68.0458 74.6737 67.5835 75.4956 66.7616C76.3176 65.9397 76.7799 64.8254 76.7812 63.663V7.33252C76.7792 6.17076 76.3165 5.05722 75.4946 4.23614C74.6727 3.41506 73.5587 2.95348 72.3969 2.95264ZM5.59863 5.39014H72.3969C72.9125 5.39014 73.407 5.59464 73.772 5.95878C74.137 6.32292 74.3426 6.81696 74.3438 7.33252V10.4403H25.2304C25.0292 10.4403 24.8312 10.4901 24.6539 10.5853C24.4767 10.6805 24.3257 10.818 24.2146 10.9857L22.1404 14.1159H3.65625V7.33252C3.65685 6.81755 3.86169 6.32385 4.22583 5.95972C4.58997 5.59558 5.08367 5.39074 5.59863 5.39014ZM24.7863 68.0471H27.397V72.61H24.7863V68.0471ZM37.6943 68.0471H40.3051V72.61H37.6946L37.6943 68.0471ZM50.5978 68.0471H53.2091V72.61H50.5982L50.5978 68.0471ZM48.1603 72.61H42.7429V52.6906H48.1607L48.1603 72.61ZM35.2568 72.61H29.8348V46.6361H35.2571L35.2568 72.61ZM22.3488 72.61H16.9313V61.2282H22.3488V72.61ZM55.6463 72.61V37.1733C55.6463 36.8501 55.5179 36.5401 55.2893 36.3115C55.0608 36.083 54.7508 35.9546 54.4275 35.9546H53.8852L58.3569 30.2277L62.8266 35.9546H62.2835C61.9602 35.9546 61.6502 36.083 61.4217 36.3115C61.1931 36.5401 61.0647 36.8501 61.0647 37.1733V72.61H55.6463ZM72.3966 65.6096H63.5019V38.3921H65.3233C65.5517 38.3921 65.7754 38.3279 65.969 38.207C66.1627 38.086 66.3185 37.9131 66.4186 37.7079C66.5188 37.5027 66.5593 37.2735 66.5355 37.0464C66.5117 36.8193 66.4246 36.6035 66.2842 36.4235L59.3185 27.4972C59.2045 27.3512 59.0588 27.2331 58.8923 27.1519C58.7259 27.0706 58.5431 27.0284 58.3579 27.0283C58.1727 27.0283 57.9899 27.0705 57.8235 27.1517C57.6571 27.2329 57.5113 27.3509 57.3973 27.4969L50.4272 36.4232C50.2866 36.6032 50.1994 36.819 50.1756 37.0461C50.1518 37.2733 50.1922 37.5025 50.2924 37.7077C50.3925 37.913 50.5483 38.086 50.742 38.207C50.9357 38.3279 51.1595 38.3921 51.3878 38.3921H53.2091V65.6096H50.5982V51.4721C50.5982 51.1489 50.4698 50.8389 50.2413 50.6103C50.0127 50.3818 49.7027 50.2534 49.3795 50.2534H41.5242C41.201 50.2534 40.891 50.3818 40.6624 50.6103C40.4338 50.8389 40.3054 51.1489 40.3054 51.4721V65.6096H37.6946V45.4174C37.6946 45.0942 37.5662 44.7842 37.3376 44.5556C37.109 44.327 36.799 44.1986 36.4758 44.1986H28.6161C28.2929 44.1986 27.9829 44.327 27.7543 44.5556C27.5258 44.7842 27.3973 45.0942 27.3973 45.4174V65.6096H24.7863V60.0095C24.7863 59.6862 24.6579 59.3763 24.4294 59.1477C24.2008 58.9191 23.8908 58.7907 23.5676 58.7907H15.7126C15.3893 58.7907 15.0794 58.9191 14.8508 59.1477C14.6222 59.3763 14.4938 59.6862 14.4938 60.0095V65.6096H5.59863C5.0831 65.6085 4.58908 65.4029 4.22495 65.0379C3.86081 64.673 3.65629 64.1785 3.65625 63.663V16.5534H22.7947C22.9959 16.5534 23.194 16.5037 23.3713 16.4085C23.5486 16.3133 23.6996 16.1757 23.8107 16.008L25.8849 12.8784H74.3438V63.663C74.3432 64.1791 74.1379 64.674 73.7729 65.0389C73.4079 65.4039 72.9131 65.6091 72.3969 65.6096H72.3966ZM7.8486 9.75098C7.8486 9.5101 7.92003 9.27464 8.05385 9.07437C8.18767 8.87409 8.37788 8.718 8.60042 8.62583C8.82296 8.53366 9.06784 8.50955 9.30408 8.55655C9.54032 8.60355 9.75732 8.71956 9.92763 8.88989C10.0979 9.06022 10.2139 9.27723 10.2609 9.51348C10.3079 9.74973 10.2837 9.9946 10.1915 10.2171C10.0993 10.4397 9.94321 10.6298 9.74292 10.7636C9.54262 10.8974 9.30715 10.9688 9.06628 10.9688C8.74365 10.9677 8.43456 10.839 8.20644 10.6109C7.97832 10.3827 7.84968 10.0736 7.8486 9.75098ZM11.8821 9.75098C11.8816 9.50969 11.9528 9.2737 12.0865 9.07284C12.2202 8.87198 12.4104 8.71528 12.6332 8.62256C12.8559 8.52983 13.1012 8.50524 13.3379 8.5519C13.5747 8.59856 13.7922 8.71437 13.9632 8.88469C14.1341 9.05501 14.2506 9.27218 14.2981 9.50875C14.3456 9.74532 14.3219 9.99065 14.2299 10.2137C14.138 10.4368 13.982 10.6276 13.7816 10.762C13.5812 10.8964 13.3454 10.9684 13.1042 10.9688C12.781 10.9684 12.4711 10.8401 12.2422 10.6119C12.0134 10.3837 11.8841 10.0742 11.8828 9.75098H11.8821ZM15.9192 9.75098C15.9192 9.51014 15.9906 9.2747 16.1244 9.07445C16.2582 8.87419 16.4483 8.71809 16.6708 8.6259C16.8933 8.53371 17.1381 8.50955 17.3744 8.5565C17.6106 8.60344 17.8276 8.71936 17.9979 8.88962C18.1683 9.05988 18.2843 9.27682 18.3314 9.51301C18.3784 9.74921 18.3544 9.99406 18.2623 10.2166C18.1702 10.4391 18.0142 10.6294 17.814 10.7633C17.6138 10.8972 17.3784 10.9687 17.1376 10.9688C16.8147 10.9685 16.5051 10.8401 16.2768 10.6118C16.0485 10.3835 15.9202 10.0739 15.9199 9.75098H15.9192ZM19.6417 23.0379C17.541 23.0371 15.4873 23.6592 13.7402 24.8256C11.9932 25.992 10.6313 27.6504 9.82676 29.5909C9.02226 31.5314 8.81132 33.6669 9.2206 35.7273C9.62988 37.7877 10.641 39.6805 12.1261 41.1662C13.6112 42.6519 15.5035 43.6638 17.5637 44.0739C19.624 44.4841 21.7596 44.274 23.7004 43.4703C25.6413 42.6666 27.3002 41.3054 28.4673 39.5588C29.6345 37.8123 30.2575 35.7588 30.2575 33.6581C30.2543 30.8433 29.135 28.1446 27.1451 26.1538C25.1552 24.163 22.4571 23.0425 19.6423 23.0379H19.6417ZM19.6417 41.8407C18.0231 41.8415 16.4406 41.3624 15.0944 40.4638C13.7482 39.5652 12.6987 38.2875 12.0787 36.7924C11.4587 35.2973 11.296 33.6518 11.6113 32.0643C11.9265 30.4767 12.7055 29.0183 13.8497 27.8735C14.9939 26.7286 16.452 25.9489 18.0394 25.6328C19.6268 25.3167 21.2723 25.4786 22.7677 26.0978C24.2632 26.717 25.5414 27.7658 26.4407 29.1116C27.34 30.4573 27.82 32.0395 27.82 33.6581C27.8175 35.8267 26.9553 37.9058 25.4223 39.4396C23.8894 40.9735 21.8108 41.8369 19.6423 41.8407H19.6417ZM18.1146 31.2305C18.1146 31.9484 18.2569 32.119 19.892 32.463C21.2817 32.7552 23.6076 33.2444 23.6076 36.0845C23.6076 37.7039 22.453 39.0794 20.861 39.5534V40.0055C20.861 40.3288 20.7326 40.6388 20.5041 40.8673C20.2755 41.0959 19.9655 41.2243 19.6423 41.2243C19.3191 41.2243 19.0091 41.0959 18.7805 40.8673C18.5519 40.6388 18.4235 40.3288 18.4235 40.0055V39.5532C16.8317 39.0793 15.6771 37.7039 15.6771 36.0845C15.6771 35.7613 15.8055 35.4513 16.034 35.2227C16.2626 34.9942 16.5726 34.8658 16.8958 34.8658C17.2191 34.8658 17.5291 34.9942 17.7576 35.2227C17.9862 35.4513 18.1146 35.7613 18.1146 36.0845C18.1146 36.7507 18.8001 37.2927 19.6423 37.2927C20.4704 37.2927 21.1701 36.7394 21.1701 36.0845C21.1701 35.3638 21.0275 35.1925 19.3903 34.8482C18.0015 34.5562 15.6771 34.0673 15.6771 31.2305C15.6771 29.6111 16.8317 28.2356 18.4235 27.7617V27.3094C18.4235 26.9861 18.5519 26.6761 18.7805 26.4476C19.0091 26.219 19.3191 26.0906 19.6423 26.0906C19.9655 26.0906 20.2755 26.219 20.5041 26.4476C20.7326 26.6761 20.861 26.9861 20.861 27.3094V27.7617C22.453 28.2356 23.6076 29.6111 23.6076 31.2305C23.6076 31.5538 23.4792 31.8638 23.2507 32.0923C23.0221 32.3209 22.7121 32.4493 22.3889 32.4493C22.0657 32.4493 21.7557 32.3209 21.5271 32.0923C21.2985 31.8638 21.1701 31.5538 21.1701 31.2305C21.1701 30.5642 20.4846 30.0221 19.6423 30.0221C18.8 30.0221 18.1146 30.5648 18.1146 31.2305Z" fill="black"/>
<path d="M16.9313 61.2283H22.3491V72.6099H16.9313V61.2283Z" fill="#FFE958"/>
<path d="M53.8855 35.9544H54.4278C54.7511 35.9544 55.0611 36.0828 55.2896 36.3114C55.5182 36.54 55.6466 36.85 55.6466 37.1732V72.6099H61.0644V37.1732C61.0644 36.85 61.1928 36.54 61.4214 36.3114C61.6499 36.0828 61.9599 35.9544 62.2831 35.9544H62.8266L58.3576 30.2275L53.8855 35.9544Z" fill="#72D1FB"/>
<path d="M29.8348 46.636H35.2571V72.6098H29.8348V46.636Z" fill="#FFAB1E"/>
<path d="M42.7429 52.6904H48.1607V72.6098H42.7429V52.6904Z" fill="#9DD46F"/>
</svg>
