<svg width="90" height="90" viewBox="0 0 90 90" fill="none" xmlns="http://www.w3.org/2000/svg">
<path d="M81.2251 17.3665V74.2624C81.2251 77.9498 78.2447 80.9302 74.5573 80.9302H15.3462C11.667 80.9302 8.67841 77.9498 8.67841 74.2624V17.3665C8.67841 13.6873 11.667 10.6987 15.3462 10.6987H74.5573C78.2447 10.6987 81.2251 13.6873 81.2251 17.3665Z" fill="white"/>
<path d="M81.2251 17.3665V74.2624C81.2251 77.9498 78.2447 80.9302 74.5573 80.9302H15.3462C11.667 80.9302 8.67841 77.9498 8.67841 74.2624V68.7732C15.2031 71.9217 22.6707 73.7066 30.6098 73.7066C56.1195 73.7066 76.8051 55.2353 76.8051 32.4534C76.8051 24.4721 74.2625 17.013 69.8678 10.6987H74.5573C78.2447 10.6987 81.2251 13.6873 81.2251 17.3665Z" fill="#DDDDDD"/>
<path d="M81.2251 17.3665V25.0193H70.9482C69.9981 25.0193 69.228 24.2491 69.228 23.299V22.951C69.228 22.0009 68.4578 21.2307 67.5077 21.2307H57.9178C57.606 21.2307 57.3001 21.3155 57.0328 21.4759L51.5356 24.7741C51.2683 24.9346 50.9624 25.0193 50.6506 25.0193H8.67841V17.3665C8.67841 13.684 11.6637 10.6987 15.3462 10.6987H74.5573C78.2398 10.6987 81.2251 13.684 81.2251 17.3665Z" fill="#5B5476"/>
<path d="M81.2251 17.3664V25.0192H70.9455C69.9942 25.0192 69.228 24.2529 69.228 23.3017V22.9481C69.228 21.9969 68.4619 21.2306 67.5105 21.2306H57.9213C57.6097 21.2306 57.2983 21.3149 57.0288 21.4748L51.5396 24.775C51.2701 24.9349 50.9587 25.0192 50.6471 25.0192H8.67841V17.3664C8.67841 16.3477 8.91396 15.371 9.32669 14.504C14.6391 17.5937 28.1936 19.791 44.0802 19.791C61.4067 19.791 75.9716 17.1728 80.0716 13.6284C80.7957 14.6976 81.2251 15.9856 81.2251 17.3664Z" fill="#3F3B5B"/>
<path d="M74.5572 81.5731H15.3461C11.3153 81.5731 8.03571 78.2936 8.03571 74.2625V17.3665C8.03571 13.3355 11.3153 10.0559 15.3461 10.0559H74.5572C78.5884 10.0559 81.868 13.3355 81.868 17.3665V74.2625C81.868 78.2936 78.5884 81.5731 74.5572 81.5731ZM15.3461 11.3416C12.0243 11.3416 9.32142 14.0445 9.32142 17.3665V74.2625C9.32142 77.5846 12.0243 80.2874 15.3461 80.2874H74.5572C77.8795 80.2874 80.5823 77.5846 80.5823 74.2625V17.3665C80.5823 14.0445 77.8795 11.3416 74.5572 11.3416H15.3461Z" fill="#0F0F0F"/>
<path d="M81.2252 25.6621H70.9482C69.6454 25.6621 68.5852 24.602 68.5852 23.2991V22.9511C68.5852 22.357 68.1018 21.8736 67.5075 21.8736H57.9178C57.7228 21.8736 57.5311 21.9268 57.3633 22.0272L51.8663 25.3254C51.4989 25.5458 51.0787 25.6621 50.6505 25.6621H8.67856C8.32365 25.6621 8.03571 25.3744 8.03571 25.0193V17.3665C8.03571 13.3355 11.3153 10.0559 15.3461 10.0559H74.5572C78.5884 10.0559 81.868 13.3355 81.868 17.3665V25.0193C81.868 25.3744 81.5801 25.6621 81.2252 25.6621ZM57.9178 20.5879H67.5075C68.8108 20.5879 69.8709 21.6481 69.8709 22.9511V23.2991C69.8709 23.8932 70.3543 24.3764 70.9482 24.3764H80.5823V17.3665C80.5823 14.0445 77.8795 11.3416 74.5572 11.3416H15.3461C12.0243 11.3416 9.32142 14.0445 9.32142 17.3665V24.3764H50.6505C50.846 24.3764 51.0377 24.3233 51.2051 24.2228L56.702 20.9248C57.069 20.7045 57.4897 20.5879 57.9178 20.5879Z" fill="#0F0F0F"/>
<path d="M16.152 19.789C17.2176 19.789 18.0815 18.9252 18.0815 17.8596C18.0815 16.794 17.2176 15.9302 16.152 15.9302C15.0864 15.9302 14.2226 16.794 14.2226 17.8596C14.2226 18.9252 15.0864 19.789 16.152 19.789Z" fill="white"/>
<path d="M16.1518 20.4314C14.7334 20.4314 13.5795 19.2775 13.5795 17.8591C13.5795 16.4407 14.7334 15.2869 16.1518 15.2869C17.5702 15.2869 18.7241 16.4407 18.7241 17.8591C18.7241 19.2775 17.5702 20.4314 16.1518 20.4314ZM16.1518 16.5726C15.4424 16.5726 14.8652 17.1497 14.8652 17.8591C14.8652 18.5685 15.4424 19.1457 16.1518 19.1457C16.8612 19.1457 17.4383 18.5685 17.4383 17.8591C17.4383 17.1497 16.8612 16.5726 16.1518 16.5726Z" fill="#0F0F0F"/>
<path d="M22.776 19.789C23.8416 19.789 24.7054 18.9252 24.7054 17.8596C24.7054 16.794 23.8416 15.9302 22.776 15.9302C21.7104 15.9302 20.8466 16.794 20.8466 17.8596C20.8466 18.9252 21.7104 19.789 22.776 19.789Z" fill="#FFD9B0"/>
<path d="M22.7758 20.4314C21.3574 20.4314 20.2036 19.2775 20.2036 17.8591C20.2036 16.4407 21.3574 15.2869 22.7758 15.2869C24.1942 15.2869 25.3481 16.4407 25.3481 17.8591C25.3481 19.2775 24.1942 20.4314 22.7758 20.4314ZM22.7758 16.5726C22.0664 16.5726 21.4893 17.1497 21.4893 17.8591C21.4893 18.5685 22.0664 19.1457 22.7758 19.1457C23.4852 19.1457 24.0624 18.5685 24.0624 17.8591C24.0624 17.1497 23.4852 16.5726 22.7758 16.5726Z" fill="#0F0F0F"/>
<path d="M29.4 19.789C30.4656 19.789 31.3294 18.9252 31.3294 17.8596C31.3294 16.794 30.4656 15.9302 29.4 15.9302C28.3344 15.9302 27.4706 16.794 27.4706 17.8596C27.4706 18.9252 28.3344 19.789 29.4 19.789Z" fill="#FF84A0"/>
<path d="M29.4003 20.4314C27.9819 20.4314 26.828 19.2775 26.828 17.8591C26.828 16.4407 27.9819 15.2869 29.4003 15.2869C30.8187 15.2869 31.9725 16.4407 31.9725 17.8591C31.9725 19.2775 30.8187 20.4314 29.4003 20.4314ZM29.4003 16.5726C28.6909 16.5726 28.1137 17.1497 28.1137 17.8591C28.1137 18.5685 28.6909 19.1457 29.4003 19.1457C30.1097 19.1457 30.6868 18.5685 30.6868 17.8591C30.6868 17.1497 30.1097 16.5726 29.4003 16.5726Z" fill="#0F0F0F"/>
<path d="M75.6814 18.502H49.0212C48.6663 18.502 48.3784 18.2143 48.3784 17.8592C48.3784 17.504 48.6663 17.2163 49.0212 17.2163H75.6814C76.0363 17.2163 76.3242 17.504 76.3242 17.8592C76.3242 18.2143 76.0363 18.502 75.6814 18.502Z" fill="#0F0F0F"/>
<path d="M25.3682 85.6036H23.5237C23.1688 85.6036 22.8809 85.3158 22.8809 84.9607C22.8809 84.6056 23.1688 84.3179 23.5237 84.3179H25.3682C25.7231 84.3179 26.011 84.6056 26.011 84.9607C26.011 85.3158 25.7231 85.6036 25.3682 85.6036Z" fill="#0F0F0F"/>
<path d="M44.9485 85.6036H29.4982C29.1433 85.6036 28.8553 85.3158 28.8553 84.9607C28.8553 84.6056 29.1433 84.3179 29.4982 84.3179H44.9485C45.3034 84.3179 45.5914 84.6056 45.5914 84.9607C45.5914 85.3158 45.3034 85.6036 44.9485 85.6036Z" fill="#0F0F0F"/>
<path d="M50.2253 7.60359H48.3808C48.0259 7.60359 47.738 7.31585 47.738 6.96073C47.738 6.60561 48.0259 6.31787 48.3808 6.31787H50.2253C50.5802 6.31787 50.8681 6.60561 50.8681 6.96073C50.8681 7.31585 50.5802 7.60359 50.2253 7.60359Z" fill="#0F0F0F"/>
<path d="M69.8057 7.60359H54.3553C54.0004 7.60359 53.7125 7.31585 53.7125 6.96073C53.7125 6.60561 54.0004 6.31787 54.3553 6.31787H69.8057C70.1606 6.31787 70.4485 6.60561 70.4485 6.96073C70.4485 7.31585 70.1606 7.60359 69.8057 7.60359Z" fill="#0F0F0F"/>
<path d="M86.0826 83.7637C86.0826 85.4934 84.6835 86.8925 82.9597 86.8925C81.23 86.8925 79.8309 85.4934 79.8309 83.7637C79.8309 82.04 81.23 80.6409 82.9597 80.6409C84.6835 80.6409 86.0826 82.04 86.0826 83.7637Z" fill="#C3C9FB"/>
<path d="M86.0829 83.7626C86.0829 85.49 84.6804 86.8925 82.9605 86.8925C81.6096 86.8925 80.4507 86.0288 80.0151 84.8257C80.4876 85.1135 81.0486 85.2832 81.6465 85.2832C83.3738 85.2832 84.7764 83.8807 84.7764 82.1534C84.7764 81.7917 84.7173 81.4374 84.5992 81.1125C85.485 81.6589 86.0829 82.6406 86.0829 83.7626Z" fill="#8693E2"/>
<path d="M82.9595 87.5353C80.8799 87.5353 79.1882 85.8434 79.1882 83.7637C79.1882 81.6874 80.8799 79.998 82.9595 79.998C85.0362 79.998 86.7254 81.6874 86.7254 83.7637C86.7254 85.8434 85.0362 87.5353 82.9595 87.5353ZM82.9595 81.2838C81.5888 81.2838 80.4739 82.3962 80.4739 83.7637C80.4739 85.1344 81.5888 86.2496 82.9595 86.2496C84.3273 86.2496 85.4397 85.1344 85.4397 83.7637C85.4397 82.3962 84.3273 81.2838 82.9595 81.2838Z" fill="#0F0F0F"/>
<path d="M11.6998 7.53644C9.63391 7.96198 8.00889 9.59207 7.58335 11.658C7.55777 11.781 7.39369 11.781 7.36811 11.658C7.15795 10.6225 6.64528 9.69976 5.92246 8.98209C5.20995 8.26442 4.28721 7.74666 3.25169 7.53644C3.12867 7.51086 3.12867 7.34677 3.25169 7.32119C4.28721 7.11104 5.20995 6.59328 5.92761 5.87554C6.64528 5.15794 7.15795 4.23514 7.36811 3.19969C7.39369 3.07667 7.55777 3.07667 7.58335 3.19969C7.79358 4.23514 8.30618 5.15794 9.02384 5.87554C9.74151 6.59328 10.6642 7.11104 11.6998 7.32119C11.8228 7.34677 11.8228 7.51086 11.6998 7.53644Z" fill="#FFD9B0"/>
<path d="M11.7018 7.53379C9.63156 7.95898 8.00753 9.59004 7.58227 11.6602C7.55446 11.7787 7.39414 11.7787 7.36619 11.6602C7.16412 10.6704 6.69711 9.78521 6.02795 9.08818C7.63114 8.79542 8.85095 7.42923 8.92065 5.75635C8.94853 5.79817 8.99036 5.83999 9.02521 5.87484C9.74315 6.59279 10.6632 7.1086 11.7018 7.31771C11.8203 7.34559 11.8203 7.51288 11.7018 7.53379Z" fill="#EDB57E"/>
<path d="M7.47572 12.3931C7.11578 12.3931 6.81235 12.1445 6.73869 11.7885C6.55705 10.8944 6.11843 10.0826 5.46972 9.4383C4.821 8.78519 4.01073 8.34658 3.12388 8.16661C2.76436 8.09127 2.51617 7.78805 2.51617 7.42812C2.51659 7.06839 2.7652 6.76559 3.12095 6.69172C4.00948 6.51154 4.82184 6.0723 5.47307 5.42107C6.12011 4.77403 6.55747 3.96188 6.73827 3.07188C6.81235 2.7132 7.11578 2.4646 7.47572 2.4646C7.83565 2.4646 8.13908 2.7132 8.21274 3.06916C8.39396 3.96188 8.83132 4.77403 9.47837 5.42086C10.1296 6.0723 10.942 6.51154 11.8276 6.69109C12.1862 6.76559 12.4348 7.06839 12.4353 7.42812C12.4353 7.78805 12.1871 8.09127 11.8317 8.16577C11.8309 8.16598 11.8301 8.16598 11.8296 8.16619C10.0086 8.54119 8.589 9.96272 8.21274 11.7877C8.13908 12.1445 7.83565 12.3931 7.47572 12.3931ZM4.87457 7.42875C5.42577 7.71041 5.93303 8.08039 6.37876 8.52905C6.82533 8.97269 7.19447 9.47995 7.47613 10.0324C8.04533 8.91096 8.95688 7.99857 10.0773 7.42916C9.52608 7.14771 9.01757 6.77836 8.56933 6.33011C8.12401 5.88501 7.75613 5.37796 7.47572 4.82697C7.1953 5.37776 6.82742 5.8848 6.38211 6.33032C5.93428 6.77815 5.42577 7.1475 4.87457 7.42875Z" fill="#0F0F0F"/>
<path d="M48.8689 66.589V75.0918C48.8689 75.7091 48.3632 76.2147 47.7461 76.2147H42.1575C41.5404 76.2147 41.0347 75.7091 41.0347 75.0918V66.589C41.0347 65.9716 41.5404 65.4661 42.1575 65.4661H47.7461C48.3632 65.4661 48.8689 65.9716 48.8689 66.589Z" fill="#FF84A0"/>
<path d="M75.3632 62.8863V75.0918C75.3632 75.7092 74.8575 76.2147 74.2404 76.2147H68.6432C68.0261 76.2147 67.5289 75.7092 67.5289 75.0918V62.8863C67.5289 62.269 68.0261 61.7634 68.6432 61.7634H74.2404C74.8575 61.7634 75.3632 62.269 75.3632 62.8863Z" fill="#FFD9B0"/>
<path d="M35.626 62.8863V75.0918C35.626 75.7092 35.1203 76.2147 34.5031 76.2147H28.906C28.2889 76.2147 27.7917 75.7092 27.7917 75.0918V62.8863C27.7917 62.269 28.2889 61.7634 28.906 61.7634H34.5031C35.1203 61.7634 35.626 62.269 35.626 62.8863Z" fill="#ABECEF"/>
<path d="M62.1118 73.0177V75.0919C62.1118 75.7092 61.6147 76.2148 60.9974 76.2148H55.4004C54.7832 76.2148 54.2775 75.7092 54.2775 75.0919V73.0177C54.2775 72.4004 54.7832 71.8948 55.4004 71.8948H60.9974C61.6147 71.8948 62.1118 72.4004 62.1118 73.0177Z" fill="#AFF2B6"/>
<path d="M22.3746 69.5033V75.0919C22.3746 75.7092 21.8774 76.2148 21.2603 76.2148H15.6631C15.046 76.2148 14.5403 75.7092 14.5403 75.0919V69.5033C14.5403 68.8776 15.046 68.3804 15.6631 68.3804H21.2603C21.8774 68.3804 22.3746 68.8776 22.3746 69.5033Z" fill="#C3C9FB"/>
<path d="M48.8689 66.589V68.3719H44.1374C43.5203 68.3719 43.0146 68.8775 43.0146 69.4948V76.2147H42.1575C41.5404 76.2147 41.0347 75.7091 41.0347 75.0918V66.589C41.0347 65.9716 41.5404 65.4661 42.1575 65.4661H47.7461C48.3632 65.4661 48.8689 65.9716 48.8689 66.589Z" fill="#F76189"/>
<path d="M75.3632 62.8863V64.6688H70.6232C70.006 64.6688 69.5089 65.1748 69.5089 65.7917V76.2147H68.6432C68.0261 76.2147 67.5289 75.7092 67.5289 75.0918V62.8863C67.5289 62.269 68.0261 61.7634 68.6432 61.7634H74.2404C74.8575 61.7634 75.3632 62.269 75.3632 62.8863Z" fill="#EDB57E"/>
<path d="M35.626 62.8863V64.6688H30.886C30.2689 64.6688 29.7717 65.1748 29.7717 65.7917V76.2147H28.906C28.2889 76.2147 27.7917 75.7092 27.7917 75.0918V62.8863C27.7917 62.269 28.2889 61.7634 28.906 61.7634H34.5031C35.1203 61.7634 35.626 62.269 35.626 62.8863Z" fill="#75C5C9"/>
<path d="M62.1118 73.0177V74.8006H57.3803C56.7631 74.8006 56.2575 75.3062 56.2575 75.9235V76.2148H55.4004C54.7832 76.2148 54.2775 75.7092 54.2775 75.0919V73.0177C54.2775 72.4004 54.7832 71.8948 55.4004 71.8948H60.9974C61.6147 71.8948 62.1118 72.4004 62.1118 73.0177Z" fill="#7FD685"/>
<path d="M22.3746 69.5033V71.2862H17.6432C17.0261 71.2862 16.5203 71.7834 16.5203 72.4091V76.2148H15.6631C15.046 76.2148 14.5403 75.7092 14.5403 75.0919V69.5033C14.5403 68.8776 15.046 68.3804 15.6631 68.3804H21.2603C21.8774 68.3804 22.3746 68.8776 22.3746 69.5033Z" fill="#8693E2"/>
<path d="M47.746 76.8576H42.1574C41.1839 76.8576 40.392 76.0655 40.392 75.0918V66.589C40.392 65.6153 41.1839 64.8232 42.1574 64.8232H47.746C48.7195 64.8232 49.5117 65.6153 49.5117 66.589V75.0918C49.5117 76.0655 48.7195 76.8576 47.746 76.8576ZM42.1574 66.109C41.8975 66.109 41.6777 66.3289 41.6777 66.589V75.0918C41.6777 75.3519 41.8975 75.5718 42.1574 75.5718H47.746C48.0063 75.5718 48.226 75.3519 48.226 75.0918V66.589C48.226 66.3289 48.0063 66.109 47.746 66.109H42.1574Z" fill="#0F0F0F"/>
<path d="M74.2403 76.8576H68.6434C67.6745 76.8576 66.886 76.0656 66.886 75.0919V62.8864C66.886 61.9127 67.6745 61.1206 68.6434 61.1206H74.2403C75.2138 61.1206 76.0061 61.9127 76.0061 62.8864V75.0919C76.0061 76.0656 75.2138 76.8576 74.2403 76.8576ZM68.6434 62.4063C68.3835 62.4063 68.1717 62.6217 68.1717 62.8864V75.0919C68.1717 75.3566 68.3835 75.5719 68.6434 75.5719H74.2403C74.5007 75.5719 74.7204 75.352 74.7204 75.0919V62.8864C74.7204 62.6263 74.5007 62.4063 74.2403 62.4063H68.6434Z" fill="#0F0F0F"/>
<path d="M34.5033 76.8576H28.906C27.9371 76.8576 27.149 76.0656 27.149 75.0919V62.8864C27.149 61.9127 27.9371 61.1206 28.906 61.1206H34.5033C35.4768 61.1206 36.2691 61.9127 36.2691 62.8864V75.0919C36.2691 76.0656 35.4768 76.8576 34.5033 76.8576ZM28.906 62.4063C28.6461 62.4063 28.4347 62.6217 28.4347 62.8864V75.0919C28.4347 75.3566 28.6461 75.5719 28.906 75.5719H34.5033C34.7637 75.5719 34.9834 75.352 34.9834 75.0919V62.8864C34.9834 62.6263 34.7637 62.4063 34.5033 62.4063H28.906Z" fill="#0F0F0F"/>
<path d="M60.9973 76.8577H55.4003C54.4269 76.8577 53.6346 76.0656 53.6346 75.0919V73.0177C53.6346 72.044 54.4269 71.252 55.4003 71.252H60.9973C61.9662 71.252 62.7547 72.044 62.7547 73.0177V75.0919C62.7547 76.0656 61.9662 76.8577 60.9973 76.8577ZM55.4003 72.5377C55.14 72.5377 54.9203 72.7576 54.9203 73.0177V75.0919C54.9203 75.3521 55.14 75.572 55.4003 75.572H60.9973C61.2572 75.572 61.469 75.3567 61.469 75.0919V73.0177C61.469 72.753 61.2572 72.5377 60.9973 72.5377H55.4003Z" fill="#0F0F0F"/>
<path d="M21.2603 76.8577H15.6633C14.6899 76.8577 13.8976 76.0656 13.8976 75.0919V69.5033C13.8976 68.5296 14.6899 67.7375 15.6633 67.7375H21.2603C22.2292 67.7375 23.0177 68.5296 23.0177 69.5033V75.0919C23.0177 76.0656 22.2292 76.8577 21.2603 76.8577ZM15.6633 69.0233C15.3988 69.0233 15.1833 69.2386 15.1833 69.5033V75.0919C15.1833 75.352 15.403 75.572 15.6633 75.572H21.2603C21.5202 75.572 21.732 75.3566 21.732 75.0919V69.5033C21.732 69.2342 21.5248 69.0233 21.2603 69.0233H15.6633Z" fill="#0F0F0F"/>
<path d="M46.1804 29.6233C38.0972 29.6233 31.5445 36.1757 31.5445 44.2592C31.5445 47.0541 32.342 49.6565 33.7013 51.878L46.1804 44.2592V29.6233Z" fill="#FFD9B0"/>
<path d="M46.1775 29.6206V44.2603L33.6975 51.8804C32.6003 50.0891 31.8718 48.0492 31.6403 45.8548C32.8575 46.6517 34.2631 47.1062 35.7546 47.1062C40.409 47.1062 44.1803 42.7092 44.1803 37.2834C44.1803 34.5663 43.2289 32.1062 41.6947 30.3233C43.1089 29.8688 44.6089 29.6206 46.1775 29.6206Z" fill="#EDB57E"/>
<path d="M33.7013 51.8779C35.7364 55.2035 39.0522 57.6531 42.9721 58.5308L46.1804 44.259L33.7013 51.8779Z" fill="#FF84A0"/>
<path d="M46.1776 44.2603L42.9719 58.532C39.0547 57.6489 35.7375 55.2064 33.6975 51.8804L34.2975 51.5116C35.1721 52.3213 36.1491 53.0247 37.2064 53.6017C39.0376 54.6011 41.3201 53.5284 41.7779 51.4931L42.9633 46.2231L46.1776 44.2603Z" fill="#F76189"/>
<path d="M46.1804 29.623V44.2589H60.8161C60.8161 36.1755 54.2635 29.623 46.1804 29.623Z" fill="#ABECEF"/>
<path d="M60.8175 44.2603H46.1776V38.1489C47.9004 40.5663 50.9604 42.1777 54.4403 42.1777C56.6432 42.1777 58.6832 41.526 60.3118 40.4374C60.646 41.6545 60.8175 42.9402 60.8175 44.2603Z" fill="#75C5C9"/>
<path d="M53.3113 57.0346C57.7865 54.5309 60.8161 49.7514 60.8161 44.259H46.1804L53.3113 57.0346Z" fill="#C3C9FB"/>
<path d="M60.8175 44.2603C60.8175 49.7547 57.7832 54.5292 53.3089 57.032L50.386 51.7862C54.1575 51.3149 57.0375 48.7259 57.0375 45.6062C57.0375 45.1433 56.9774 44.6888 56.8489 44.2603H60.8175Z" fill="#8693E2"/>
<path d="M42.972 58.5308C44.0058 58.7622 45.0768 58.8949 46.1804 58.8949C48.7712 58.8949 51.2003 58.2152 53.3113 57.0346L46.1804 44.259L42.972 58.5308Z" fill="#AFF2B6"/>
<path d="M53.309 57.032C51.2003 58.2148 48.7746 58.892 46.1776 58.892H46.0746C46.6747 57.0747 47.0347 54.6234 47.0347 51.9318C47.0347 49.1888 46.6575 46.7032 46.0404 44.8688L46.1776 44.2603L53.309 57.032Z" fill="#7FD685"/>
<path d="M33.7019 52.5207C33.4855 52.5207 33.2741 52.4114 33.1532 52.2133C31.6799 49.8061 30.9015 47.0556 30.9015 44.259C30.9015 35.8342 37.7557 28.9802 46.1802 28.9802C46.5351 28.9802 46.8231 29.268 46.8231 29.6231V44.259C46.8231 44.4831 46.7063 44.6909 46.515 44.8077L34.0363 52.4265C33.932 52.4903 33.8161 52.5207 33.7019 52.5207ZM45.5374 30.2806C38.1186 30.6173 32.1872 36.7583 32.1872 44.259C32.1872 46.6061 32.787 48.9188 33.927 50.987L45.5374 43.8982V30.2806Z" fill="#0F0F0F"/>
<path d="M42.9726 59.1738C42.9262 59.1738 42.8789 59.1686 42.8316 59.1581C38.8334 58.2629 35.306 55.7316 33.1531 52.2133C33.064 52.0679 33.0364 51.8929 33.0766 51.727C33.1163 51.5612 33.2209 51.4181 33.3666 51.3292L45.8454 43.7103C46.0651 43.5759 46.3451 43.5862 46.5548 43.7365C46.7645 43.8869 46.8641 44.1481 46.8076 44.4L43.5996 58.6718C43.5322 58.9706 43.2668 59.1738 42.9726 59.1738ZM34.5983 52.0833C36.47 54.8458 39.2925 56.8721 42.4892 57.7483L45.2201 45.5983L34.5983 52.0833Z" fill="#0F0F0F"/>
<path d="M60.8161 44.9018H46.1802C45.8253 44.9018 45.5374 44.6141 45.5374 44.259V29.6231C45.5374 29.268 45.8253 28.9802 46.1802 28.9802C54.6047 28.9802 61.459 35.8342 61.459 44.259C61.459 44.6141 61.171 44.9018 60.8161 44.9018ZM46.8231 43.6161H60.1586C59.8317 36.4101 54.0293 30.6077 46.8231 30.2806V43.6161Z" fill="#0F0F0F"/>
<path d="M53.3115 57.6775C53.2529 57.6775 53.1939 57.6695 53.1365 57.6532C52.9725 57.6067 52.8331 57.4969 52.7502 57.3479L45.619 44.5723C45.5076 44.3733 45.5106 44.1302 45.6256 43.9337C45.7412 43.737 45.9521 43.6162 46.1802 43.6162H60.8161C61.171 43.6162 61.4589 43.9039 61.4589 44.2591C61.4589 49.7819 58.4573 54.8922 53.6254 57.5956C53.5287 57.6498 53.4203 57.6775 53.3115 57.6775ZM47.2751 44.9019L53.5521 56.1465C57.47 53.7125 59.946 49.4976 60.1586 44.9019H47.2751Z" fill="#0F0F0F"/>
<path d="M46.1802 59.5376C45.0837 59.5376 43.957 59.41 42.8316 59.158C42.6655 59.1208 42.5206 59.0188 42.429 58.8747C42.3377 58.7305 42.3076 58.5562 42.3449 58.3896L45.5529 44.1178C45.6115 43.8579 45.8241 43.661 46.0882 43.6227C46.3472 43.5834 46.6117 43.7129 46.7415 43.9456L53.8728 56.7211C54.0456 57.0308 53.9351 57.4222 53.6254 57.5954C51.3537 58.8661 48.7789 59.5376 46.1802 59.5376ZM43.7436 58.0305C46.7955 58.5771 49.7796 58.0998 52.4297 56.7739L46.4385 46.0407L43.7436 58.0305Z" fill="#0F0F0F"/>
<path d="M62.8661 64.9463V51.1053C62.8661 50.0524 63.7142 49.197 64.7672 49.197H84.9399C85.9928 49.197 86.841 50.0524 86.841 51.1053V64.9463C86.841 65.9991 85.9928 66.8474 84.9399 66.8474H64.7672C63.7142 66.8474 62.8661 65.9991 62.8661 64.9463Z" fill="#FF84A0"/>
<path d="M86.8381 60.53V64.9463C86.8381 65.9991 85.9899 66.8474 84.9371 66.8474H64.7643C63.7114 66.8474 62.8633 65.9991 62.8633 64.9463V51.1053C62.8633 50.0528 63.7114 49.197 64.7643 49.197H67.6597C66.2778 50.6154 65.4736 52.3266 65.4736 54.1763C65.4736 59.0531 71.1181 63.0088 78.0861 63.0088C81.486 63.0088 84.5642 62.0656 86.8381 60.53Z" fill="#F76189"/>
<path d="M84.94 67.4902H64.767C63.3645 67.4902 62.2232 66.3489 62.2232 64.9462V51.1053C62.2232 49.6987 63.3645 48.5542 64.767 48.5542H84.94C86.3425 48.5542 87.4838 49.6987 87.4838 51.1053V64.9462C87.4838 66.3489 86.3425 67.4902 84.94 67.4902ZM64.767 49.8399C64.0731 49.8399 63.5089 50.4076 63.5089 51.1053V64.9462C63.5089 65.6401 64.0731 66.2045 64.767 66.2045H84.94C85.6339 66.2045 86.1981 65.6401 86.1981 64.9462V51.1053C86.1981 50.4076 85.6339 49.8399 84.94 49.8399H64.767Z" fill="#0F0F0F"/>
<path d="M78.1651 59.7312L73.5406 62.4342C72.218 63.2068 70.5575 62.2508 70.5575 60.7159V55.3287C70.5575 53.7938 72.218 52.8378 73.5406 53.6099L78.1651 56.3135C79.4782 57.0762 79.4782 58.9684 78.1651 59.7312Z" fill="white"/>
<path d="M78.1613 59.729L73.54 62.4324C72.2219 63.21 70.5573 62.2467 70.5573 60.7174V59.1543C71.039 59.3573 71.5544 59.467 72.1035 59.467C74.351 59.467 76.1928 57.6168 76.3618 55.2595L78.1613 56.3156C79.4793 57.0759 79.4793 58.9687 78.1613 59.729Z" fill="#DDDDDD"/>
<path d="M72.5416 63.3519C72.0933 63.3519 71.6451 63.2345 71.2354 62.9995C70.4084 62.5247 69.9145 61.6711 69.9145 60.716V55.3288C69.9145 54.3739 70.4084 53.5201 71.2354 53.0453C72.0611 52.5721 73.0438 52.5755 73.8645 53.0549L78.4893 55.7586C79.305 56.2322 79.7926 57.0788 79.7926 58.0224C79.7926 58.9653 79.3054 59.8114 78.4893 60.2862L73.865 62.9893C73.4515 63.231 72.9965 63.3519 72.5416 63.3519ZM72.542 53.9805C72.3135 53.9805 72.0846 54.0403 71.8757 54.1605C71.4526 54.4032 71.2002 54.8399 71.2002 55.3288V60.716C71.2002 61.2049 71.4526 61.6416 71.8757 61.8844C72.2959 62.1259 72.7977 62.124 73.2162 61.8791L77.8405 59.1763C77.841 59.1759 77.8414 59.1757 77.8422 59.1754C78.2587 58.9335 78.5068 58.5025 78.5068 58.0224C78.5068 57.5424 78.2587 57.1113 77.8422 56.8694L73.2162 54.1651C73.0053 54.042 72.7739 53.9805 72.542 53.9805Z" fill="#0F0F0F"/>
<path d="M3.80841 40.4858V25.5664C3.80841 24.4316 4.72257 23.5095 5.85753 23.5095H27.602C28.7369 23.5095 29.6512 24.4316 29.6512 25.5664V40.4858C29.6512 41.6207 28.7369 42.535 27.602 42.535H5.85753C4.72257 42.535 3.80841 41.6207 3.80841 40.4858Z" fill="#C3C9FB"/>
<path d="M29.6479 38.1321V40.4884C29.6479 41.6232 28.7337 42.5376 27.5989 42.5376H5.85435C4.71949 42.5376 3.80524 41.6232 3.80524 40.4884V25.5694C3.80524 24.4345 4.71949 23.5125 5.85435 23.5125H10.5122C8.38421 25.2069 7.10754 27.3742 7.10754 29.7386C7.10754 35.1373 13.783 39.5113 22.0189 39.5113C24.8089 39.5113 27.4176 39.0068 29.6479 38.1321Z" fill="#8693E2"/>
<path d="M27.6018 43.1778H5.85767C4.37316 43.1778 3.16571 41.9701 3.16571 40.4858V25.5664C3.16571 24.0777 4.37316 22.8665 5.85767 22.8665H27.6018C29.0863 22.8665 30.2942 24.0777 30.2942 25.5664V40.4858C30.2942 41.9701 29.0863 43.1778 27.6018 43.1778ZM5.85767 24.1522C5.08214 24.1522 4.45142 24.7867 4.45142 25.5664V40.4858C4.45142 41.2611 5.08214 41.8921 5.85767 41.8921H27.6018C28.3773 41.8921 29.0085 41.2611 29.0085 40.4858V25.5664C29.0085 24.7867 28.3773 24.1522 27.6018 24.1522H5.85767Z" fill="#0F0F0F"/>
<path d="M24.6499 39.3396H8.81201C7.83223 39.3396 7.30412 38.2064 7.91751 37.4568L14.3753 29.6273C14.895 29.0054 15.8833 29.099 16.2752 29.8062L18.4732 33.7848C18.8226 34.4238 19.666 34.5773 20.2198 34.1085L21.9493 32.6604C22.5371 32.1574 23.4487 32.3792 23.7469 33.0947L25.7149 37.7463C26.0302 38.5047 25.4763 39.3396 24.6499 39.3396Z" fill="white"/>
<path d="M24.6499 39.3396H8.81201C7.83223 39.3396 7.30412 38.2064 7.91751 37.4568L8.46267 36.792C10.0048 37.4568 11.8705 37.8487 13.8898 37.8487C18.7289 37.8487 22.7501 35.5994 23.4402 32.677C23.5765 32.7881 23.6788 32.9328 23.7469 33.0947L25.7149 37.7463C26.0302 38.5047 25.4763 39.3396 24.6499 39.3396Z" fill="#DDDDDD"/>
<path d="M24.6499 39.9824H8.81206C8.10977 39.9824 7.487 39.5892 7.18734 38.9564C6.88684 38.3225 6.9764 37.592 7.42004 37.0496L13.8792 29.2181C14.2625 28.7596 14.8414 28.5208 15.4357 28.5786C16.027 28.6351 16.551 28.9774 16.8377 29.4945L19.0358 33.4739C19.1371 33.6591 19.2982 33.7135 19.3853 33.7296C19.4736 33.7463 19.6444 33.7526 19.8042 33.6178L21.5365 32.1674C21.9689 31.7977 22.5406 31.6598 23.1022 31.7943C23.658 31.927 24.1209 32.3208 24.3402 32.8476L26.3069 37.4959C26.5392 38.0547 26.4785 38.6845 26.1453 39.184C25.8118 39.684 25.253 39.9824 24.6499 39.9824ZM15.2645 29.8561C15.1657 29.8561 14.9991 29.8829 14.8681 30.0394L8.41362 37.8659C8.22528 38.0957 8.31652 38.3374 8.34917 38.4058C8.3906 38.4933 8.51867 38.6967 8.81206 38.6967H24.6499C24.8981 38.6967 25.0304 38.5387 25.0756 38.4707C25.171 38.3273 25.1878 38.1534 25.1212 37.9933L23.1546 33.3452C23.0905 33.1912 22.9633 33.083 22.8038 33.0449C22.6456 33.0078 22.4878 33.0457 22.3669 33.1489L20.6325 34.6012C20.2228 34.9486 19.6829 35.0925 19.1501 34.9938C18.6202 34.895 18.1678 34.5669 17.9092 34.0931L15.7127 30.1171C15.5964 29.907 15.3946 29.8662 15.3135 29.8584C15.3001 29.8572 15.2837 29.8561 15.2645 29.8561Z" fill="#0F0F0F"/>
<path d="M20.1051 29.8998C20.9875 29.8998 21.7028 29.1845 21.7028 28.3021C21.7028 27.4197 20.9875 26.7043 20.1051 26.7043C19.2227 26.7043 18.5074 27.4197 18.5074 28.3021C18.5074 29.1845 19.2227 29.8998 20.1051 29.8998Z" fill="white"/>
<path d="M20.1048 30.5428C18.8693 30.5428 17.8644 29.5377 17.8644 28.3024C17.8644 27.0671 18.8693 26.062 20.1048 26.062C21.3402 26.062 22.3451 27.0671 22.3451 28.3024C22.3451 29.5377 21.3402 30.5428 20.1048 30.5428ZM20.1048 27.3477C19.5782 27.3477 19.1501 27.7761 19.1501 28.3024C19.1501 28.8287 19.5782 29.257 20.1048 29.257C20.6313 29.257 21.0594 28.8287 21.0594 28.3024C21.0594 27.7761 20.6313 27.3477 20.1048 27.3477Z" fill="#0F0F0F"/>
</svg>
