<svg width="78" height="78" viewBox="0 0 78 78" fill="none" xmlns="http://www.w3.org/2000/svg">
<path d="M30.355 60.4766H47.6448V70.1592H30.355V60.4766Z" fill="#939598"/>
<path d="M46.1214 60.4766V67.1123C46.1214 67.9536 45.4392 68.6358 44.598 68.6358H30.355V70.1592H47.6448V60.4766H46.1214Z" fill="#808285"/>
<path d="M22.9548 76.231H55.0448C56.1783 76.231 56.9147 75.0372 56.4065 74.0241L55.3102 71.8395C54.7934 70.8094 53.7395 70.1592 52.5869 70.1592H25.4127C24.2604 70.1592 23.2065 70.8094 22.6894 71.8395L21.5932 74.0241C21.085 75.0372 21.8214 76.231 22.9548 76.231Z" fill="#58595B"/>
<path d="M56.4068 74.0243L55.3105 71.8397C54.9921 71.2054 54.4693 70.7166 53.8459 70.4336L54.8833 72.5009C55.3919 73.514 54.6551 74.7077 53.5217 74.7077H21.4326C21.4332 75.5066 22.0722 76.2312 22.9548 76.2312H55.0448C56.1786 76.2312 56.915 75.0374 56.4068 74.0243Z" fill="#414042"/>
<path d="M6.49439 60.4767H71.5056C73.1883 60.4767 74.5524 59.1126 74.5524 57.4298V12.8564C74.5524 11.1737 73.1883 9.80957 71.5056 9.80957H6.49439C4.8116 9.80957 3.44751 11.1737 3.44751 12.8564V57.4298C3.44751 59.1126 4.8116 60.4767 6.49439 60.4767Z" fill="#58595B"/>
<path d="M72.7575 10.0811C72.9303 10.4634 73.0287 10.8863 73.0287 11.3333V55.9067C73.0287 57.5895 71.6646 58.9535 69.9818 58.9535H4.97095C4.52428 58.9535 4.10107 58.8551 3.71869 58.6824C4.19674 59.7399 5.25828 60.477 6.49439 60.477H71.5056C73.1884 60.477 74.5524 59.1129 74.5524 57.4301V12.8565C74.5524 11.6206 73.8151 10.5588 72.7575 10.0811Z" fill="#414042"/>
<path d="M41.9454 57.6118H36.0549C35.3818 57.6118 34.8361 57.0661 34.8361 56.3931C34.8361 55.72 35.3818 55.1743 36.0549 55.1743H41.9454C42.6185 55.1743 43.1641 55.72 43.1641 56.3931C43.1641 57.0661 42.6185 57.6118 41.9454 57.6118Z" fill="#B2B0AD"/>
<path d="M7.56506 52.1691H70.4352C71.2764 52.1691 71.9586 51.4869 71.9586 50.6456V14.1562C71.9586 13.315 71.2764 12.6328 70.4352 12.6328H7.56506C6.72382 12.6328 6.04163 13.315 6.04163 14.1562V50.6459C6.04163 51.4872 6.72352 52.1691 7.56506 52.1691Z" fill="#478CF7"/>
<path d="M7.86975 42.2583C7.53338 42.2583 7.26038 41.9853 7.26038 41.6489V23.9771C7.26038 23.6407 7.53338 23.3677 7.86975 23.3677C8.20613 23.3677 8.47913 23.6407 8.47913 23.9771V41.6489C8.47913 41.9856 8.20613 42.2583 7.86975 42.2583ZM7.86975 22.1489C7.53338 22.1489 7.26038 21.8759 7.26038 21.5396V21.3872C7.26038 21.0508 7.53338 20.7778 7.86975 20.7778C8.20613 20.7778 8.47913 21.0508 8.47913 21.3872V21.5396C8.47913 21.8762 8.20613 22.1489 7.86975 22.1489Z" fill="#5E9CF7"/>
<path d="M70.4349 12.6328H68.9115V47.5987C68.9115 48.44 68.2293 49.1222 67.388 49.1222H6.04163V50.6456C6.04163 51.4869 6.72382 52.1691 7.56506 52.1691H70.4352C71.2764 52.1691 71.9586 51.4869 71.9586 50.6456V14.1562C71.9583 13.3147 71.2764 12.6328 70.4349 12.6328Z" fill="#377DE2"/>
<path d="M70.4349 12.6328V49.1222C70.4349 49.9634 69.7527 50.6456 68.9115 50.6456H6.04163C6.04163 51.4869 6.72382 52.1691 7.56506 52.1691H70.4352C71.2764 52.1691 71.9586 51.4869 71.9586 50.6456V14.1562C71.9583 13.3147 71.2764 12.6328 70.4349 12.6328Z" fill="#2266D3"/>
<path d="M52.4766 34.9824H24.3189C23.9825 34.9824 23.7095 34.7094 23.7095 34.373C23.7095 34.0367 23.9825 33.7637 24.3189 33.7637H52.4766C52.813 33.7637 53.086 34.0367 53.086 34.373C53.086 34.7094 52.8133 34.9824 52.4766 34.9824Z" fill="#FFC91D"/>
<path d="M20.9856 34.9824H12.7454C12.409 34.9824 12.136 34.7094 12.136 34.373C12.136 34.0367 12.409 33.7637 12.7454 33.7637H20.9856C21.322 33.7637 21.595 34.0367 21.595 34.373C21.595 34.7094 21.322 34.9824 20.9856 34.9824Z" fill="#FFC91D"/>
<path d="M65.2546 38.8716H56.7487C56.4123 38.8716 56.1393 38.5986 56.1393 38.2622C56.1393 37.9258 56.4123 37.6528 56.7487 37.6528H65.2546C65.591 37.6528 65.864 37.9258 65.864 38.2622C65.864 38.5986 65.5913 38.8716 65.2546 38.8716Z" fill="#FFC91D"/>
<path d="M53.8791 38.8716H15.5229C15.1865 38.8716 14.9135 38.5986 14.9135 38.2622C14.9135 37.9258 15.1865 37.6528 15.5229 37.6528H53.8791C54.2155 37.6528 54.4885 37.9258 54.4885 38.2622C54.4885 38.5986 54.2158 38.8716 53.8791 38.8716Z" fill="#FFC91D"/>
<path d="M65.2546 42.7603H25.7567C25.4203 42.7603 25.1473 42.4873 25.1473 42.1509C25.1473 41.8145 25.4203 41.5415 25.7567 41.5415H65.2549C65.5913 41.5415 65.8643 41.8145 65.8643 42.1509C65.8643 42.4873 65.5913 42.7603 65.2546 42.7603Z" fill="#FFC91D"/>
<path d="M22.3747 42.7603H15.5229C15.1865 42.7603 14.9135 42.4873 14.9135 42.1509C14.9135 41.8145 15.1865 41.5415 15.5229 41.5415H22.3744C22.7108 41.5415 22.9838 41.8145 22.9838 42.1509C22.9838 42.4873 22.7111 42.7603 22.3747 42.7603Z" fill="#FFC91D"/>
<path d="M52.4766 46.6494H22.3747C22.0383 46.6494 21.7653 46.3764 21.7653 46.04C21.7653 45.7037 22.0383 45.4307 22.3747 45.4307H52.4769C52.8133 45.4307 53.0863 45.7037 53.0863 46.04C53.0863 46.3764 52.8133 46.6494 52.4766 46.6494Z" fill="#FFC91D"/>
<path d="M20.1523 46.6494H12.7454C12.409 46.6494 12.136 46.3764 12.136 46.04C12.136 45.7037 12.409 45.4307 12.7454 45.4307H20.1526C20.489 45.4307 20.762 45.7037 20.762 46.04C20.762 46.3764 20.489 46.6494 20.1523 46.6494Z" fill="#FFC91D"/>
<path d="M19.4978 27.012C19.4016 27.012 19.3038 26.9892 19.2127 26.9407L12.4596 23.3536C12.2603 23.2479 12.136 23.041 12.136 22.8156C12.136 22.5901 12.2606 22.3832 12.4596 22.2775L19.2127 18.6907C19.5106 18.5323 19.879 18.6459 20.0365 18.943C20.1947 19.2404 20.0813 19.609 19.7843 19.7669L14.0442 22.8156L19.7839 25.8643C20.0813 26.0221 20.1944 26.3911 20.0362 26.6881C19.9272 26.8944 19.716 27.012 19.4978 27.012Z" fill="white"/>
<path d="M27.3146 27.0121C27.0964 27.0121 26.8853 26.8945 26.7759 26.6882C26.6178 26.3911 26.7311 26.0221 27.0282 25.8643L32.7679 22.8156L27.0282 19.7669C26.7308 19.6091 26.6178 19.2401 26.7759 18.943C26.9337 18.6457 27.3024 18.5323 27.5998 18.6908L34.3529 22.2775C34.5518 22.3833 34.6764 22.5901 34.6764 22.8156C34.6764 23.0411 34.5521 23.248 34.3529 23.3537L27.5998 26.9405C27.509 26.9892 27.4112 27.0121 27.3146 27.0121Z" fill="white"/>
<path d="M21.2574 29.0047C21.1846 29.0047 21.1106 28.9916 21.0386 28.9639C20.7245 28.8429 20.5682 28.4904 20.6892 28.1763L24.9868 17.0171C25.1074 16.703 25.46 16.5461 25.7744 16.6676C26.0885 16.7886 26.2448 17.1411 26.1239 17.4552L21.826 28.6141C21.733 28.856 21.5021 29.0047 21.2574 29.0047Z" fill="white"/>
<path d="M53.2429 22.5347C46.5937 22.5347 41.2032 20.8723 41.2032 18.8218V25.5106C41.2032 27.5611 46.5934 29.2235 53.2429 29.2235C59.8921 29.2235 65.2826 27.5611 65.2826 25.5106C65.2826 25.4947 65.2826 20.3513 65.2826 18.8218C65.2826 20.8723 59.8924 22.5347 53.2429 22.5347Z" fill="#A54AF4"/>
<path d="M64.1062 20.4243V24.3344C64.1062 26.3849 58.716 28.0473 52.0665 28.0473C47.3636 28.0473 43.2933 27.2152 41.3116 26.0031C42.0926 27.8209 47.1348 29.224 53.2429 29.224C59.8921 29.224 65.2826 27.5616 65.2826 25.5111C65.2826 25.4952 65.2826 20.3518 65.2826 18.8223C65.2826 19.396 64.86 19.9392 64.1062 20.4243Z" fill="#893ADD"/>
<path d="M44.7982 25.4824C45.3892 25.4824 45.8683 25.0033 45.8683 24.4123C45.8683 23.8214 45.3892 23.3423 44.7982 23.3423C44.2072 23.3423 43.7281 23.8214 43.7281 24.4123C43.7281 25.0033 44.2072 25.4824 44.7982 25.4824Z" fill="#FFC91D"/>
<path d="M48.7768 26.5283C49.3678 26.5283 49.8469 26.0492 49.8469 25.4582C49.8469 24.8673 49.3678 24.3882 48.7768 24.3882C48.1858 24.3882 47.7067 24.8673 47.7067 25.4582C47.7067 26.0492 48.1858 26.5283 48.7768 26.5283Z" fill="#FFC91D"/>
<path d="M53.2429 15.8462C46.5937 15.8462 41.2032 14.1838 41.2032 12.1333V18.8221C41.2032 20.8727 46.5934 22.535 53.2429 22.535C59.8921 22.535 65.2826 20.8727 65.2826 18.8221C65.2826 18.8072 65.2826 13.9675 65.2826 12.1333C65.2826 14.1838 59.8924 15.8462 53.2429 15.8462Z" fill="#A54AF4"/>
<path d="M64.1062 13.7357V17.6457C64.1062 19.6963 58.716 21.3586 52.0665 21.3586C47.3636 21.3586 43.2933 20.5265 41.3116 19.3142C42.0926 21.1319 47.1348 22.535 53.2429 22.535C59.8921 22.535 65.2826 20.8727 65.2826 18.8221C65.2826 18.8072 65.2826 13.9675 65.2826 12.1333C65.2826 12.7073 64.86 13.2506 64.1062 13.7357Z" fill="#893ADD"/>
<path d="M44.7982 18.7939C45.3892 18.7939 45.8683 18.3148 45.8683 17.7239C45.8683 17.1329 45.3892 16.6538 44.7982 16.6538C44.2072 16.6538 43.7281 17.1329 43.7281 17.7239C43.7281 18.3148 44.2072 18.7939 44.7982 18.7939Z" fill="#FFC91D"/>
<path d="M48.7768 19.8398C49.3678 19.8398 49.8469 19.3607 49.8469 18.7698C49.8469 18.1788 49.3678 17.6997 48.7768 17.6997C48.1858 17.6997 47.7067 18.1788 47.7067 18.7698C47.7067 19.3607 48.1858 19.8398 48.7768 19.8398Z" fill="#FFC91D"/>
<path d="M53.2429 9.19437C46.5937 9.19437 41.2032 7.53199 41.2032 5.48145V12.1331C41.2032 14.1836 46.5934 15.846 53.2429 15.846C59.8921 15.846 65.2826 14.1836 65.2826 12.1331C65.2826 12.1145 65.2826 5.48145 65.2826 5.48145C65.2826 7.53199 59.8924 9.19437 53.2429 9.19437Z" fill="#A54AF4"/>
<path d="M64.1062 7.08398V10.9569C64.1062 13.0074 58.716 14.6698 52.0665 14.6698C47.3636 14.6698 43.2933 13.838 41.3116 12.6256C42.0926 14.4434 47.1348 15.8465 53.2429 15.8465C59.8921 15.8465 65.2826 14.1841 65.2826 12.1336C65.2826 12.115 65.2826 5.48224 65.2826 5.48193C65.2826 6.05566 64.86 6.59892 64.1062 7.08398Z" fill="#893ADD"/>
<path d="M44.7982 12.105C45.3892 12.105 45.8683 11.6259 45.8683 11.0349C45.8683 10.4439 45.3892 9.96484 44.7982 9.96484C44.2072 9.96484 43.7281 10.4439 43.7281 11.0349C43.7281 11.6259 44.2072 12.105 44.7982 12.105Z" fill="#FFC91D"/>
<path d="M48.7768 13.1509C49.3678 13.1509 49.8469 12.6718 49.8469 12.0808C49.8469 11.4898 49.3678 11.0107 48.7768 11.0107C48.1858 11.0107 47.7067 11.4898 47.7067 12.0808C47.7067 12.6718 48.1858 13.1509 48.7768 13.1509Z" fill="#FFC91D"/>
<path d="M53.2429 9.1944C59.8923 9.1944 65.2826 7.53207 65.2826 5.48148C65.2826 3.43089 59.8923 1.76855 53.2429 1.76855C46.5936 1.76855 41.2032 3.43089 41.2032 5.48148C41.2032 7.53207 46.5936 9.1944 53.2429 9.1944Z" fill="#893ADD"/>
<path d="M63.9978 3.81299C64.0669 3.97417 64.1062 4.13809 64.1062 4.30506C64.1062 6.35561 58.716 8.01798 52.0665 8.01798C47.3637 8.01798 43.2933 7.18588 41.312 5.97353C42.0929 7.79129 47.1351 9.19438 53.2432 9.19438C59.8924 9.19438 65.2829 7.532 65.2829 5.48146C65.2826 4.88122 64.818 4.31481 63.9978 3.81299Z" fill="#6C2BC1"/>
</svg>
