<svg width="74" height="74" viewBox="0 0 74 74" fill="none" xmlns="http://www.w3.org/2000/svg">
<g clip-path="url(#clip0_44_47)">
<path d="M33.228 56.0225C32.6292 56.0225 32.144 56.5077 32.144 57.1064V65.4077C32.144 66.0065 32.6292 66.4917 33.228 66.4917C33.8268 66.4917 34.312 66.0065 34.312 65.4077V57.1064C34.312 56.5077 33.8268 56.0225 33.228 56.0225Z" fill="#45D987"/>
<path d="M24.4547 56.0225C23.8559 56.0225 23.3707 56.5077 23.3707 57.1064V65.4077C23.3707 66.0065 23.8559 66.4917 24.4547 66.4917C25.0535 66.4917 25.5387 66.0065 25.5387 65.4077V57.1064C25.5387 56.5077 25.0535 56.0225 24.4547 56.0225Z" fill="#45D987"/>
<path d="M28.8416 56.5439C28.2428 56.5439 27.7576 57.0291 27.7576 57.6279V70.6589C27.7576 71.2577 28.2428 71.7429 28.8416 71.7429C29.4403 71.7429 29.9255 71.2577 29.9255 70.6589V57.6279C29.9255 57.0293 29.4402 56.5439 28.8416 56.5439Z" fill="#45D987"/>
<path d="M57.3713 26.6191H65.6726C66.2714 26.6191 66.7566 26.1339 66.7566 25.5352C66.7566 24.9364 66.2714 24.4512 65.6726 24.4512H57.3713C56.7725 24.4512 56.2873 24.9364 56.2873 25.5352C56.2873 26.1339 56.7725 26.6191 57.3713 26.6191Z" fill="#45D987"/>
<path d="M65.6724 33.2246H57.3712C56.7724 33.2246 56.2872 33.7098 56.2872 34.3086C56.2872 34.9074 56.7724 35.3926 57.3712 35.3926H65.6724C66.2712 35.3926 66.7564 34.9074 66.7564 34.3086C66.7564 33.7098 66.2712 33.2246 65.6724 33.2246Z" fill="#45D987"/>
<path d="M70.9949 28.8379H57.7036C57.1048 28.8379 56.6196 29.3231 56.6196 29.9219C56.6196 30.5207 57.1048 31.0059 57.7036 31.0059H70.9949C71.5937 31.0059 72.0789 30.5207 72.0789 29.9219C72.0789 29.3231 71.5937 28.8379 70.9949 28.8379Z" fill="#45D987"/>
<path d="M67.4214 73.7385L52.4711 58.7882C52.1222 58.4393 52.1222 57.8736 52.4711 57.5248L57.5248 52.4711C57.8737 52.1222 58.4394 52.1222 58.7881 52.4711L73.7384 67.4215C74.0873 67.7704 74.0873 68.3361 73.7384 68.6848L68.6847 73.7385C68.3358 74.0872 67.7703 74.0872 67.4214 73.7385Z" fill="#F78E36"/>
<path d="M57.5247 52.4711L54.3663 55.6296C54.7152 55.2807 55.2809 55.2807 55.6296 55.6296L70.5799 70.5799C70.9288 70.9288 70.9288 71.4945 70.5799 71.8432L73.7384 68.6848C74.0873 68.3359 74.0873 67.7704 73.7384 67.4215L58.7881 52.4711C58.4392 52.1222 57.8735 52.1222 57.5247 52.4711Z" fill="#F86F1B"/>
<path d="M46.524 49.6934L49.682 46.5354L56.5653 53.4187L53.4073 56.5767L46.524 49.6934Z" fill="#4380A0"/>
<path d="M55.249 61.5776L61.5651 55.2616L64.7231 58.4196L58.407 64.7356L55.249 61.5776Z" fill="#7BE492"/>
<path d="M58.4072 58.4199L61.5652 55.2619L64.7232 58.4199L61.5652 61.5779L58.4072 58.4199Z" fill="#45D987"/>
<path d="M29.0342 58.0683C45.0693 58.0683 58.0683 45.0693 58.0683 29.0342C58.0683 12.999 45.0693 0 29.0342 0C12.999 0 0 12.999 0 29.0342C0 45.0693 12.999 58.0683 29.0342 58.0683Z" fill="#43809F"/>
<path d="M29.0342 0C28.2827 0 27.5378 0.0286172 26.8007 0.0846953C41.7924 1.22519 53.6016 13.7506 53.6016 29.0343C53.6016 44.3181 41.7924 56.8434 26.8007 57.9839C27.5378 58.04 28.2826 58.0686 29.0342 58.0686C45.0693 58.0686 58.0683 45.0696 58.0683 29.0344C58.0683 12.9993 45.0693 0 29.0342 0Z" fill="#3A7190"/>
<path d="M29.0342 53.6016C42.6024 53.6016 53.6016 42.6024 53.6016 29.0342C53.6016 15.466 42.6024 4.4668 29.0342 4.4668C15.4659 4.4668 4.46674 15.466 4.46674 29.0342C4.46674 42.6024 15.4659 53.6016 29.0342 53.6016Z" fill="#F3F3F3"/>
<path d="M29.0342 4.4668C28.2812 4.4668 27.5367 4.50279 26.8007 4.56941C39.3044 5.70167 49.1347 16.2406 49.1347 29.0342C49.1347 41.8278 39.3044 52.3668 26.8007 53.499C27.5367 53.5657 28.2812 53.6016 29.0342 53.6016C42.5806 53.6016 53.6016 42.5807 53.6016 29.0342C53.6016 15.4877 42.5808 4.4668 29.0342 4.4668Z" fill="#E4E4E4"/>
<path d="M24.9396 29.5557H16.006V16.453C16.006 16.1241 16.2726 15.8574 16.6016 15.8574H24.344C24.6729 15.8574 24.9396 16.1241 24.9396 16.453V29.5557Z" fill="#29CEF6"/>
<path d="M20.4728 15.8574V29.5557H24.9396V16.453C24.9396 16.1241 24.6729 15.8574 24.344 15.8574H20.4728Z" fill="#22B5ED"/>
<path d="M42.8069 29.5554H33.8732V22.1108C33.8732 21.7818 34.1399 21.5151 34.4688 21.5151H42.2112C42.5402 21.5151 42.8069 21.7818 42.8069 22.1108V29.5554Z" fill="#7BE492"/>
<path d="M38.3401 21.5151V29.5554H42.8068V22.1108C42.8068 21.7818 42.5402 21.5151 42.2112 21.5151H38.3401Z" fill="#45D987"/>
<path d="M33.8732 29.5554H24.9396V10.7948C24.9396 10.4659 25.2062 10.1992 25.5352 10.1992H33.2776C33.6065 10.1992 33.8732 10.4659 33.8732 10.7948V29.5554Z" fill="#F78E36"/>
<path d="M29.4065 10.1992V29.5554H33.8732V10.7948C33.8732 10.4659 33.6066 10.1992 33.2776 10.1992H29.4065Z" fill="#F86F1B"/>
<path d="M45.4182 28.4712H13.3947C12.7959 28.4712 12.3107 28.9564 12.3107 29.5552C12.3107 30.154 12.7959 30.6392 13.3947 30.6392H45.4182C46.017 30.6392 46.5022 30.154 46.5022 29.5552C46.5022 28.9564 46.017 28.4712 45.4182 28.4712Z" fill="#43809F"/>
<path d="M41.9135 40.1672H36.6339L34.2376 34.0412C34.0738 33.6225 33.6655 33.3485 33.2185 33.3521C32.7687 33.3561 32.3681 33.6375 32.2117 34.0593L28.9165 42.9449L26.6055 36.3945C26.4638 35.9927 26.0999 35.7111 25.6753 35.675C25.25 35.6376 24.8445 35.8545 24.6367 36.2265L22.4366 40.167H17.1741C16.5753 40.167 16.0901 40.6522 16.0901 41.251C16.0901 41.8498 16.5753 42.335 17.1741 42.335H23.0728C23.4657 42.335 23.8279 42.1224 24.0194 41.7794L25.3593 39.3792L27.8687 46.4916C28.0204 46.9221 28.4257 47.2112 28.8823 47.2149H28.8911C29.3439 47.2149 29.7496 46.9331 29.9073 46.5078L33.2549 37.4806L34.8842 41.6459C35.0468 42.0614 35.4473 42.335 35.8936 42.335H41.9131C42.5118 42.335 42.997 41.8498 42.997 41.251C42.997 40.6522 42.5123 40.1672 41.9135 40.1672Z" fill="#29CEF6"/>
</g>
<defs>
<clipPath id="clip0_44_47">
<rect width="74" height="74" fill="white"/>
</clipPath>
</defs>
</svg>
