<svg width="56" height="56" viewBox="0 0 56 56" fill="none" xmlns="http://www.w3.org/2000/svg">
<path d="M4.88889 18.7936H1.33333C0.597156 18.7936 0 18.1965 0 17.4603C0 16.7241 0.597156 16.127 1.33333 16.127H4.88889C5.62507 16.127 6.22222 16.7241 6.22222 17.4603C6.22222 18.1965 5.62507 18.7936 4.88889 18.7936Z" fill="white"/>
<path d="M8.31766 6.6789C8.07979 6.6789 7.83855 6.61472 7.61971 6.48103L4.59019 4.6165C3.96353 4.23108 3.76904 3.40992 4.15446 2.78148C4.53988 2.15819 5.35766 1.9621 5.98948 2.34575L9.019 4.21028C9.64566 4.5957 9.84015 5.41686 9.45473 6.0453C9.20299 6.4533 8.76548 6.6789 8.31766 6.6789Z" fill="white"/>
<path d="M5.29177 32.7728C4.84377 32.7728 4.40644 32.547 4.15471 32.1392C3.76928 31.5107 3.96377 30.6896 4.59044 30.3041L7.61995 28.4396C8.25017 28.0524 9.06955 28.2521 9.45497 28.8753C9.84039 29.5038 9.64591 30.3249 9.01924 30.7104L5.98973 32.5749C5.77106 32.7086 5.52964 32.7728 5.29177 32.7728Z" fill="white"/>
<path d="M54.6667 18.7936H51.1112C50.375 18.7936 49.7778 18.1965 49.7778 17.4603C49.7778 16.7241 50.375 16.127 51.1112 16.127H54.6667C55.4029 16.127 56.0001 16.7241 56.0001 17.4603C56.0001 18.1965 55.4029 18.7936 54.6667 18.7936Z" fill="white"/>
<path d="M47.6823 6.6789C47.2343 6.6789 46.7969 6.45312 46.5452 6.0453C46.1598 5.41686 46.3543 4.5957 46.9809 4.21028L50.0105 2.34575C50.6407 1.9621 51.4601 2.15819 51.8455 2.78148C52.2309 3.40992 52.0364 4.23108 51.4097 4.6165L48.3802 6.48103C48.1616 6.61472 47.9201 6.6789 47.6823 6.6789Z" fill="white"/>
<path d="M50.7083 32.7728C50.4704 32.7728 50.2292 32.7086 50.0103 32.5749L46.9808 30.7104C46.3542 30.3249 46.1597 29.5038 46.5451 28.8753C46.9305 28.2521 47.7499 28.0524 48.3801 28.4396L51.4096 30.3041C52.0363 30.6896 52.2308 31.5107 51.8454 32.1392C51.5936 32.5472 51.1561 32.7728 50.7083 32.7728Z" fill="white"/>
<path d="M16.0178 16.1268H12.0712C12.6934 8.35792 18.8978 2.17125 26.6667 1.53125V6.79347C26.6667 7.52236 27.2712 8.12681 28.0001 8.12681H28.8889C29.6178 8.12681 30.2223 8.73125 30.2223 9.46014C30.2223 10.189 29.6178 10.7935 28.8889 10.7935H28.0001C27.2712 10.7935 26.6667 11.3979 26.6667 12.1268V16.1268H23.9823C23.7512 14.1357 22.0623 12.5713 20.0001 12.5713C17.9378 12.5713 16.2489 14.1357 16.0178 16.1268Z" fill="white"/>
<path d="M26.6667 31.2205V34.3494H20.8534C20.6756 32.7849 19.8756 31.3272 18.5956 30.4027C14.9334 27.7538 12.4445 23.5583 12.0712 18.7938H17.3334C18.0623 18.7938 18.6667 18.1894 18.6667 17.4605V16.5716C18.6667 15.8427 19.2712 15.2383 20.0001 15.2383C20.7289 15.2383 21.3334 15.8427 21.3334 16.5716V17.4605C21.3334 18.1894 21.9378 18.7938 22.6667 18.7938H26.6667V23.2561C24.6756 23.4872 23.1112 25.1761 23.1112 27.2383C23.1112 29.3005 24.6756 30.9894 26.6667 31.2205Z" fill="white"/>
<path d="M43.9289 18.7939C43.5556 23.5406 41.0845 27.7006 37.4578 30.3495C36.1601 31.3095 35.3423 32.7673 35.1467 34.3495H29.3334V29.9051C29.3334 29.1762 28.7289 28.5717 28.0001 28.5717H27.1112C26.3823 28.5717 25.7778 27.9673 25.7778 27.2384C25.7778 26.5095 26.3823 25.9051 27.1112 25.9051H28.0001C28.7289 25.9051 29.3334 25.3006 29.3334 24.5717V18.7939H32.0178C32.2489 20.7851 33.9378 22.3495 36.0001 22.3495C38.0623 22.3495 39.7512 20.7851 39.9823 18.7939H43.9289Z" fill="white"/>
<path d="M33.3334 16.127H29.3334V13.4426C31.3245 13.2114 32.8889 11.5226 32.8889 9.46034C32.8889 7.39812 31.3245 5.70923 29.3334 5.47812V1.51367C37.0134 2.15367 43.2889 8.48256 43.9289 16.127H38.6667C37.9378 16.127 37.3334 16.7315 37.3334 17.4603V18.3492C37.3334 19.0781 36.7289 19.6826 36 19.6826C35.2712 19.6826 34.6667 19.0781 34.6667 18.3492V17.4603C34.6667 16.7315 34.0623 16.127 33.3334 16.127Z" fill="white"/>
<path d="M36.8889 37.0161H19.1112C18.1293 37.0161 17.3334 37.8121 17.3334 38.7939V42.3494C17.3334 43.3313 18.1293 44.1272 19.1112 44.1272H36.8889C37.8708 44.1272 38.6667 43.3313 38.6667 42.3494V38.7939C38.6667 37.8121 37.8708 37.0161 36.8889 37.0161Z" fill="white"/>
<path d="M35.1111 46.7939V47.6828C35.1111 51.6117 31.9289 54.7939 28 54.7939C24.0711 54.7939 20.8889 51.6117 20.8889 47.6828V46.7939H35.1111Z" fill="white"/>
</svg>
