<svg width="56" height="56" viewBox="0 0 56 56" fill="none" xmlns="http://www.w3.org/2000/svg">
<g clip-path="url(#clip0_2527_30)">
<mask id="mask0_2527_30" style="mask-type:luminance" maskUnits="userSpaceOnUse" x="0" y="0" width="56" height="56">
<path d="M56 0H0V56H56V0Z" fill="white"/>
</mask>
<g mask="url(#mask0_2527_30)">
<path d="M22.6994 18.6201H21.2091C20.6744 18.6201 20.2448 19.0497 20.2448 19.5844V26.6765C20.2448 27.2112 20.6744 27.6408 21.2091 27.6408H35.0075C35.5422 27.6408 35.9718 27.2112 35.9718 26.6765V19.5844C35.9718 19.0497 35.5422 18.6201 35.0075 18.6201H33.5172C32.9824 18.6201 32.5528 19.0497 32.5528 19.5844V21.6884C32.5528 21.9777 32.3162 22.2144 32.0269 22.2144H30.4139C30.1246 22.2144 29.8878 21.9777 29.8878 21.6884V19.5844C29.8878 19.0497 29.4582 18.6201 28.9235 18.6201H27.3106C26.7758 18.6201 26.3463 19.0497 26.3463 19.5844V21.6884C26.3463 21.9777 26.1095 22.2144 25.8202 22.2144H24.2071C23.9178 22.2144 23.6812 21.9777 23.6812 21.6884V19.5844C23.6724 19.0584 23.2342 18.6201 22.6994 18.6201Z" fill="white"/>
<path d="M38.7069 47.856H17.5272C16.8697 47.856 16.335 48.3907 16.335 49.0482V56H39.8991V49.0482C39.8991 48.3907 39.3644 47.856 38.7069 47.856ZM35.9016 52.7915H20.3325C19.8591 52.7915 19.4733 52.4057 19.4733 51.9323C19.4733 51.459 19.8591 51.0732 20.3325 51.0732H35.8929C36.3663 51.0732 36.752 51.459 36.752 51.9323C36.7608 52.4057 36.375 52.7915 35.9016 52.7915Z" fill="white"/>
<path d="M49.7877 19.3212H46.5529C46.062 16.9368 45.124 14.7276 43.8353 12.7639L46.1321 10.4671C46.6844 9.90607 46.6844 8.99436 46.1321 8.43331L42.8009 5.11083C42.2486 4.54978 41.3281 4.54978 40.7671 5.11083L38.4703 7.39887C36.5066 6.10144 34.2974 5.16343 31.913 4.67251V1.4377C31.913 0.63995 31.273 0 30.4665 0H25.7677C24.9699 0 24.3212 0.63995 24.3212 1.4377V4.68128C21.9368 5.1722 19.7276 6.11021 17.7727 7.40764L15.4759 5.11083C14.9148 4.54978 14.0031 4.54978 13.4421 5.11083L10.1108 8.43331C9.55855 8.99436 9.54978 9.90607 10.1108 10.4671L12.4076 12.7727C11.119 14.7276 10.181 16.9455 9.69004 19.3212H6.4377C5.63995 19.3212 5 19.9612 5 20.7589V25.4665C5 26.2642 5.63995 26.9042 6.4377 26.9042H9.69004C10.181 29.2887 11.1102 31.4978 12.4076 33.4615L10.1196 35.7583C9.55855 36.3193 9.55855 37.2311 10.1196 37.7921L13.4421 41.1146C14.0031 41.6756 14.9148 41.6756 15.4759 41.1146L17.7727 38.8178C18.7545 39.4665 19.789 40.0188 20.8848 40.4834C21.8228 38.7214 22.3137 36.7051 22.5416 34.794C18.176 32.7076 15.1515 28.2718 15.1515 23.0996C15.1515 15.9461 20.9549 10.1428 28.1171 10.1428C35.2793 10.1428 41.0827 15.9461 41.0827 23.0996C41.0827 28.263 38.0582 32.7076 33.6925 34.794C33.9205 36.6963 34.4026 38.7214 35.3494 40.4834C36.4452 40.0275 37.4972 39.4665 38.479 38.8178L40.7671 41.1146C41.3281 41.6756 42.2486 41.6756 42.8009 41.1146L46.1321 37.7921C46.6844 37.2311 46.6844 36.3193 46.1321 35.7583L43.8353 33.4615C45.1327 31.4978 46.062 29.2887 46.5529 26.9042H49.7877C50.5855 26.9042 51.2342 26.2642 51.2342 25.4665V20.7589C51.2342 19.9699 50.5855 19.3212 49.7877 19.3212Z" fill="white"/>
<path d="M34.6832 42.6834C31.6412 38.4668 31.6412 32.339 31.8604 29.376H24.3826C24.6018 32.3303 24.6018 38.4668 21.5598 42.6834H34.6832Z" fill="white"/>
<path d="M18.509 45.5327V46.1288H37.7163V45.5327C37.7163 44.9103 37.2078 44.4019 36.5854 44.4019H19.6399C19.0175 44.4106 18.509 44.9103 18.509 45.5327Z" fill="white"/>
</g>
</g>
<defs>
<clipPath id="clip0_2527_30">
<rect width="56" height="56" fill="white"/>
</clipPath>
</defs>
</svg>
