<svg width="56" height="56" viewBox="0 0 56 56" fill="none" xmlns="http://www.w3.org/2000/svg">
<g clip-path="url(#clip0_2527_27)">
<path d="M53.5993 1.30708C51.9786 -0.31383 49.4173 -0.442772 47.6419 1.00753L31.9728 13.807H5.47375C3.05862 13.807 1.09375 15.7713 1.09375 18.1858V44.585C1.09375 46.9994 3.05862 48.9638 5.47375 48.9638H17.9218V52.719H15.1627C14.2567 52.719 13.5222 53.4535 13.5222 54.3594C13.5222 55.2654 14.2567 55.9999 15.1627 55.9999H32.7174C33.6234 55.9999 34.3579 55.2654 34.3579 54.3594C34.3579 53.4535 33.6234 52.719 32.7174 52.719H29.9583V48.9638H42.4063C44.8216 48.9638 46.7864 46.9994 46.7864 44.585V15.9803L53.9003 7.26261C55.3489 5.48749 55.2195 2.92712 53.5993 1.30708ZM30.9159 20.373C30.9663 19.3844 31.4168 18.4957 32.1863 17.869L34.9157 15.6394L39.2736 19.9973L37.0389 22.7359C36.4131 23.501 35.5248 23.9495 34.5378 23.9987C33.5496 24.0485 32.6219 23.6903 31.923 22.9914C31.2231 22.2915 30.8654 21.3615 30.9159 20.373ZM29.5986 30.9576C28.8716 31.6846 27.6608 32.0193 26.0002 31.9526C24.7416 31.902 23.6637 31.9905 22.7504 32.1551C22.9149 31.2419 23.0034 30.1633 22.9528 28.9053C22.8861 27.2446 23.2209 26.034 23.9479 25.307C24.7025 24.5524 25.7059 24.1367 26.7732 24.1367C27.8405 24.1367 28.8438 24.5523 29.5985 25.307C31.1564 26.8649 31.1564 29.3997 29.5986 30.9576ZM26.6773 52.7191H21.2028V48.9639H26.6773V52.7191ZM43.5055 44.585C43.5055 45.1903 43.0124 45.6828 42.4063 45.6828H5.47375C4.86775 45.6828 4.37473 45.1903 4.37473 44.585V43.1853H43.5055V44.585ZM43.5055 39.9043H4.37473V18.1858C4.37473 17.5804 4.86775 17.0879 5.47375 17.0879H28.5913C28.0299 18.0251 27.6959 19.0942 27.6392 20.2058C27.6272 20.4409 27.6278 20.6755 27.6404 20.9085C27.3546 20.8749 27.0654 20.8556 26.7733 20.8556C24.8297 20.8556 23.0023 21.6125 21.628 22.9869C20.2268 24.388 19.5697 26.4235 19.6747 29.037C19.8145 32.5154 18.6612 33.9117 18.5713 34.015C17.9574 34.6575 17.9663 35.676 18.5979 36.3077C18.9182 36.628 19.3381 36.7883 19.7579 36.7883C20.1659 36.7883 20.5739 36.637 20.8905 36.3345C20.9932 36.245 22.3898 35.0915 25.8687 35.231C28.4828 35.3362 30.5176 34.6789 31.9188 33.2777C33.5559 31.6405 34.2462 29.4111 33.994 27.2728C34.118 27.2797 34.2424 27.284 34.3672 27.284C34.4784 27.284 34.5899 27.2813 34.7015 27.2757C36.5984 27.181 38.3761 26.2835 39.5799 24.8119L43.5057 20.0011V39.9043H43.5055ZM20.9178 36.3078C20.9178 36.3078 20.9097 36.3169 20.8924 36.3328C20.9009 36.3246 20.9093 36.3162 20.9178 36.3078ZM18.5978 33.9877C18.5894 33.9962 18.5812 34.0046 18.573 34.013C18.5888 33.9958 18.5978 33.9877 18.5978 33.9877ZM51.3582 5.18838L41.3585 17.4424L37.4694 13.5535L49.7174 3.54854C49.9339 3.3717 50.1949 3.28442 50.4551 3.28442C50.7541 3.28442 51.0519 3.3998 51.2792 3.62707C51.7041 4.05184 51.738 4.72302 51.3582 5.18838Z" fill="white"/>
</g>
<defs>
<clipPath id="clip0_2527_27">
<rect width="56" height="56" fill="white"/>
</clipPath>
</defs>
</svg>
