<svg width="132" height="33" viewBox="0 0 132 33" fill="none" xmlns="http://www.w3.org/2000/svg">
<path d="M8.528 27.312C7.01133 27.312 5.681 27.0087 4.537 26.402C3.393 25.7867 2.50467 24.933 1.872 23.841C1.248 22.749 0.936 21.488 0.936 20.058C0.936 18.6107 1.248 17.3583 1.872 16.301C2.50467 15.235 3.393 14.4073 4.537 13.818C5.681 13.2287 7.01133 12.934 8.528 12.934C9.66333 12.934 10.6687 13.103 11.544 13.441C12.4193 13.7703 13.1517 14.208 13.741 14.754C14.3303 15.3 14.7767 15.898 15.08 16.548C15.3833 17.198 15.535 17.8437 15.535 18.485C15.535 18.4937 15.535 18.511 15.535 18.537C15.535 18.5543 15.535 18.5717 15.535 18.589H11.544C11.544 18.537 11.5397 18.4893 11.531 18.446C11.531 18.394 11.5223 18.342 11.505 18.29C11.4357 17.926 11.284 17.5837 11.05 17.263C10.816 16.9423 10.4867 16.6823 10.062 16.483C9.646 16.275 9.126 16.171 8.502 16.171C7.83467 16.171 7.23667 16.3183 6.708 16.613C6.188 16.9077 5.77633 17.3453 5.473 17.926C5.16967 18.498 5.018 19.2087 5.018 20.058C5.018 20.89 5.16967 21.6093 5.473 22.216C5.77633 22.814 6.188 23.2733 6.708 23.594C7.23667 23.9147 7.83467 24.075 8.502 24.075C9.18667 24.075 9.74567 23.971 10.179 23.763C10.6123 23.5463 10.9373 23.2603 11.154 22.905C11.3707 22.541 11.5007 22.1423 11.544 21.709H15.535C15.535 22.3503 15.3833 23.0047 15.08 23.672C14.7853 24.3307 14.3433 24.933 13.754 25.479C13.1733 26.025 12.4453 26.467 11.57 26.805C10.6947 27.143 9.68067 27.312 8.528 27.312ZM18.0515 27V13.194H22.0945V17.952L21.2625 17.432C21.3578 16.782 21.5312 16.184 21.7825 15.638C22.0338 15.092 22.3588 14.6197 22.7575 14.221C23.1562 13.8137 23.6285 13.4973 24.1745 13.272C24.7292 13.0467 25.3618 12.934 26.0725 12.934C26.6272 12.934 27.0605 12.9773 27.3725 13.064C27.6932 13.142 27.8925 13.2027 27.9705 13.246L27.3075 16.86C27.2295 16.8167 27.0562 16.7473 26.7875 16.652C26.5188 16.5567 26.1722 16.509 25.7475 16.509C25.0542 16.509 24.4735 16.626 24.0055 16.86C23.5375 17.094 23.1605 17.406 22.8745 17.796C22.5972 18.1773 22.3978 18.602 22.2765 19.07C22.1552 19.538 22.0945 20.0103 22.0945 20.487V27H18.0515ZM31.3036 21.306V18.641H40.4556L40.0656 19.317C40.0656 19.2477 40.0656 19.1827 40.0656 19.122C40.0656 19.0527 40.0656 18.9877 40.0656 18.927C40.0656 18.433 39.9486 17.9607 39.7146 17.51C39.4806 17.0507 39.1166 16.678 38.6226 16.392C38.1373 16.0973 37.5133 15.95 36.7506 15.95C35.9879 15.95 35.3293 16.1147 34.7746 16.444C34.2286 16.7647 33.8083 17.2283 33.5136 17.835C33.2276 18.4417 33.0846 19.174 33.0846 20.032C33.0846 20.916 33.2233 21.6743 33.5006 22.307C33.7866 22.931 34.2069 23.412 34.7616 23.75C35.3249 24.088 36.0226 24.257 36.8546 24.257C37.3919 24.257 37.8556 24.2093 38.2456 24.114C38.6356 24.01 38.9519 23.88 39.1946 23.724C39.4459 23.568 39.6366 23.3947 39.7666 23.204C39.8966 23.0133 39.9746 22.827 40.0006 22.645H43.9786C43.9266 23.2257 43.7273 23.7977 43.3806 24.361C43.0339 24.9157 42.5529 25.4183 41.9376 25.869C41.3223 26.311 40.5726 26.662 39.6886 26.922C38.8133 27.182 37.8123 27.312 36.6856 27.312C35.1603 27.312 33.8299 27.0087 32.6946 26.402C31.5593 25.7867 30.6796 24.9417 30.0556 23.867C29.4316 22.7837 29.1196 21.5357 29.1196 20.123C29.1196 18.693 29.4359 17.4407 30.0686 16.366C30.7099 15.2827 31.5983 14.442 32.7336 13.844C33.8776 13.2373 35.1993 12.934 36.6986 12.934C38.2326 12.934 39.5586 13.2417 40.6766 13.857C41.7946 14.4637 42.6569 15.3173 43.2636 16.418C43.8703 17.51 44.1736 18.784 44.1736 20.24C44.1736 20.4567 44.1693 20.6647 44.1606 20.864C44.1519 21.0633 44.1389 21.2107 44.1216 21.306H31.3036ZM51.3721 27.286C50.3668 27.286 49.4698 27.1257 48.6811 26.805C47.9011 26.4843 47.2901 26.0207 46.8481 25.414C46.4061 24.8073 46.1851 24.0707 46.1851 23.204C46.1851 22.2247 46.4538 21.4273 46.9911 20.812C47.5285 20.1967 48.2391 19.7287 49.1231 19.408C50.0158 19.0787 50.9821 18.862 52.0221 18.758C53.5388 18.6107 54.5831 18.4763 55.1551 18.355C55.7358 18.2337 56.0261 18.0213 56.0261 17.718C56.0261 17.7093 56.0261 17.7007 56.0261 17.692C56.0261 17.1807 55.7791 16.7777 55.2851 16.483C54.7998 16.1883 54.1195 16.041 53.2441 16.041C52.3168 16.041 51.6061 16.21 51.1121 16.548C50.6268 16.8773 50.3841 17.3843 50.3841 18.069H46.4191C46.4191 16.9597 46.7181 16.0237 47.3161 15.261C47.9228 14.4983 48.7418 13.922 49.7731 13.532C50.8045 13.1333 51.9701 12.934 53.2701 12.934C54.4835 12.934 55.6058 13.1203 56.6371 13.493C57.6685 13.857 58.4961 14.4073 59.1201 15.144C59.7528 15.8807 60.0691 16.8167 60.0691 17.952C60.0691 18.134 60.0691 18.316 60.0691 18.498C60.0691 18.6713 60.0691 18.849 60.0691 19.031V23.919C60.0691 24.2743 60.0778 24.6167 60.0951 24.946C60.1211 25.2667 60.1731 25.5613 60.2511 25.83C60.3378 26.1333 60.4461 26.3847 60.5761 26.584C60.7061 26.7833 60.8145 26.922 60.9011 27H56.9361C56.8755 26.9393 56.7801 26.8137 56.6501 26.623C56.5288 26.4323 56.4248 26.2113 56.3381 25.96C56.2341 25.6567 56.1561 25.3533 56.1041 25.05C56.0608 24.738 56.0391 24.374 56.0391 23.958L56.8711 24.53C56.6285 25.102 56.2341 25.596 55.6881 26.012C55.1508 26.4193 54.5095 26.7357 53.7641 26.961C53.0275 27.1777 52.2301 27.286 51.3721 27.286ZM52.4511 24.27C53.0838 24.27 53.6731 24.1573 54.2191 23.932C54.7738 23.698 55.2245 23.334 55.5711 22.84C55.9178 22.346 56.0911 21.7003 56.0911 20.903V19.512L57.0921 20.487C56.5201 20.695 55.8571 20.8683 55.1031 21.007C54.3578 21.137 53.6125 21.241 52.8671 21.319C51.9831 21.4057 51.3201 21.5573 50.8781 21.774C50.4448 21.982 50.2281 22.3373 50.2281 22.84C50.2281 23.3167 50.4145 23.6763 50.7871 23.919C51.1598 24.153 51.7145 24.27 52.4511 24.27ZM69.4996 27.286C68.971 27.286 68.425 27.2383 67.8616 27.143C67.307 27.0563 66.787 26.8787 66.3016 26.61C65.825 26.3327 65.4393 25.9297 65.1446 25.401C64.85 24.8723 64.7026 24.1747 64.7026 23.308C64.7026 23.1173 64.7026 22.9223 64.7026 22.723C64.7026 22.5237 64.7026 22.3243 64.7026 22.125V16.314H61.5176V13.194H62.4146C62.9346 13.194 63.3463 13.1723 63.6496 13.129C63.9616 13.0857 64.1913 12.9773 64.3386 12.804C64.4946 12.622 64.5943 12.3403 64.6376 11.959C64.681 11.5777 64.7026 11.0533 64.7026 10.386V8.644H68.7456V13.194H72.7626V16.314H68.7456V21.28C68.7456 21.436 68.7456 21.5877 68.7456 21.735C68.7456 21.8823 68.7456 22.0253 68.7456 22.164C68.7456 22.762 68.815 23.2473 68.9536 23.62C69.101 23.9927 69.4606 24.179 70.0326 24.179C70.3186 24.179 70.5873 24.153 70.8386 24.101C71.0986 24.049 71.2936 23.997 71.4236 23.945V26.974C71.2416 27.052 70.986 27.1213 70.6566 27.182C70.3273 27.2513 69.9416 27.286 69.4996 27.286ZM75.0498 27V13.194H79.0408V27H75.0498ZM77.0388 10.945C76.4148 10.945 75.8688 10.7803 75.4008 10.451C74.9415 10.1217 74.7118 9.658 74.7118 9.06C74.7118 8.45333 74.9415 7.98533 75.4008 7.656C75.8688 7.32667 76.4148 7.162 77.0388 7.162C77.6715 7.162 78.2175 7.32667 78.6768 7.656C79.1448 7.98533 79.3788 8.45333 79.3788 9.06C79.3788 9.66667 79.1448 10.1347 78.6768 10.464C78.2175 10.7847 77.6715 10.945 77.0388 10.945ZM91.7345 27V21.137C91.7345 20.8077 91.7345 20.5087 91.7345 20.24C91.7345 19.9713 91.7345 19.7287 91.7345 19.512C91.7345 18.94 91.6608 18.42 91.5135 17.952C91.3662 17.4753 91.1018 17.094 90.7205 16.808C90.3392 16.522 89.7888 16.379 89.0695 16.379C88.4455 16.379 87.9038 16.522 87.4445 16.808C86.9938 17.094 86.6472 17.4927 86.4045 18.004C86.1618 18.5153 86.0405 19.1047 86.0405 19.772L84.9225 18.966C84.9225 17.77 85.1825 16.7213 85.7025 15.82C86.2225 14.9187 86.9245 14.2123 87.8085 13.701C88.7012 13.1897 89.6892 12.934 90.7725 12.934C91.9078 12.934 92.8395 13.1637 93.5675 13.623C94.3042 14.0737 94.8502 14.7063 95.2055 15.521C95.5695 16.327 95.7515 17.2717 95.7515 18.355C95.7515 18.797 95.7515 19.291 95.7515 19.837C95.7515 20.383 95.7515 20.942 95.7515 21.514V27H91.7345ZM82.0105 27V13.194H86.0405V27H82.0105ZM105.684 27.299C104.194 27.299 102.881 26.9913 101.745 26.376C100.61 25.7607 99.7216 24.9157 99.0803 23.841C98.4476 22.7577 98.1313 21.5097 98.1313 20.097C98.1313 18.693 98.4476 17.4537 99.0803 16.379C99.7216 15.2957 100.61 14.455 101.745 13.857C102.881 13.2503 104.194 12.947 105.684 12.947C107.175 12.947 108.488 13.2503 109.623 13.857C110.759 14.455 111.643 15.2957 112.275 16.379C112.917 17.4537 113.237 18.693 113.237 20.097C113.237 21.5097 112.917 22.7577 112.275 23.841C111.643 24.9157 110.759 25.7607 109.623 26.376C108.488 26.9913 107.175 27.299 105.684 27.299ZM105.684 24.101C106.386 24.101 106.997 23.9363 107.517 23.607C108.037 23.2777 108.44 22.814 108.726 22.216C109.012 21.6093 109.155 20.903 109.155 20.097C109.155 19.291 109.012 18.5933 108.726 18.004C108.44 17.406 108.037 16.9467 107.517 16.626C106.997 16.3053 106.386 16.145 105.684 16.145C104.991 16.145 104.38 16.3053 103.851 16.626C103.331 16.9467 102.928 17.406 102.642 18.004C102.356 18.5933 102.213 19.291 102.213 20.097C102.213 20.903 102.356 21.6093 102.642 22.216C102.928 22.814 103.331 23.2777 103.851 23.607C104.38 23.9363 104.991 24.101 105.684 24.101Z" fill="white"/>
<path d="M130 9.5202L129.999 10.4806C127.297 11.2058 125.693 13.9838 126.415 16.687L125.583 17.1664C124.593 16.1774 123.296 15.6834 121.999 15.6834C120.702 15.6834 119.405 16.1774 118.416 17.1664L117.584 16.6856C118.307 13.9828 116.703 11.2044 114 10.479L114.001 9.5194C116.703 8.7936 118.307 6.0156 117.585 3.3126L118.416 2.8334C119.406 3.8222 120.703 4.3172 122.001 4.3172C123.297 4.3172 124.594 3.8222 125.585 2.8334L126.416 3.3138C125.693 6.0172 127.297 8.795 130 9.5202ZM124.919 4.9508C124.026 5.4084 123.032 5.6506 122 5.6506C120.969 5.6506 119.974 5.4078 119.082 4.95C118.975 6.9962 117.884 8.8856 116.164 9.9994C117.884 11.1132 118.975 13.0034 119.081 15.0494C119.973 14.5924 120.968 14.3502 121.999 14.3502C123.031 14.3502 124.025 14.5924 124.918 15.05C125.025 13.0042 126.116 11.1146 127.835 10C126.116 8.8862 125.025 6.9968 124.919 4.9508Z" fill="#D3FF24"/>
</svg>
