<svg width="212" height="53" viewBox="0 0 212 53" fill="none" xmlns="http://www.w3.org/2000/svg">
<path d="M13.1199 42.4805C10.7866 42.4805 8.73994 42.0138 6.97994 41.0805C5.21994 40.1338 3.85327 38.8205 2.87994 37.1405C1.91994 35.4605 1.43994 33.5205 1.43994 31.3205C1.43994 29.0938 1.91994 27.1672 2.87994 25.5405C3.85327 23.9005 5.21994 22.6272 6.97994 21.7205C8.73994 20.8138 10.7866 20.3605 13.1199 20.3605C14.8666 20.3605 16.4132 20.6205 17.7599 21.1405C19.1066 21.6472 20.2332 22.3205 21.1399 23.1605C22.0466 24.0005 22.7332 24.9205 23.1999 25.9205C23.6666 26.9205 23.8999 27.9138 23.8999 28.9005C23.8999 28.9138 23.8999 28.9405 23.8999 28.9805C23.8999 29.0072 23.8999 29.0338 23.8999 29.0605H17.7599C17.7599 28.9805 17.7532 28.9072 17.7399 28.8405C17.7399 28.7605 17.7266 28.6805 17.6999 28.6005C17.5932 28.0405 17.3599 27.5138 16.9999 27.0205C16.6399 26.5272 16.1332 26.1272 15.4799 25.8205C14.8399 25.5005 14.0399 25.3405 13.0799 25.3405C12.0532 25.3405 11.1332 25.5672 10.3199 26.0205C9.51994 26.4738 8.88661 27.1472 8.41994 28.0405C7.95327 28.9205 7.71994 30.0138 7.71994 31.3205C7.71994 32.6005 7.95327 33.7072 8.41994 34.6405C8.88661 35.5605 9.51994 36.2672 10.3199 36.7605C11.1332 37.2538 12.0532 37.5005 13.0799 37.5005C14.1332 37.5005 14.9932 37.3405 15.6599 37.0205C16.3266 36.6872 16.8266 36.2472 17.1599 35.7005C17.4932 35.1405 17.6932 34.5272 17.7599 33.8605H23.8999C23.8999 34.8472 23.6666 35.8538 23.1999 36.8805C22.7466 37.8938 22.0666 38.8205 21.1599 39.6605C20.2666 40.5005 19.1466 41.1805 17.7999 41.7005C16.4532 42.2205 14.8932 42.4805 13.1199 42.4805ZM27.7715 42.0005V20.7605H33.9915V28.0805L32.7115 27.2805C32.8581 26.2805 33.1248 25.3605 33.5115 24.5205C33.8981 23.6805 34.3981 22.9538 35.0115 22.3405C35.6248 21.7138 36.3515 21.2272 37.1915 20.8805C38.0448 20.5338 39.0181 20.3605 40.1115 20.3605C40.9648 20.3605 41.6315 20.4272 42.1115 20.5605C42.6048 20.6805 42.9115 20.7738 43.0315 20.8405L42.0115 26.4005C41.8915 26.3338 41.6248 26.2272 41.2115 26.0805C40.7981 25.9338 40.2648 25.8605 39.6115 25.8605C38.5448 25.8605 37.6515 26.0405 36.9315 26.4005C36.2115 26.7605 35.6315 27.2405 35.1915 27.8405C34.7648 28.4272 34.4581 29.0805 34.2715 29.8005C34.0848 30.5205 33.9915 31.2472 33.9915 31.9805V42.0005H27.7715ZM48.1593 33.2405V29.1405H62.2393L61.6393 30.1805C61.6393 30.0738 61.6393 29.9738 61.6393 29.8805C61.6393 29.7738 61.6393 29.6738 61.6393 29.5805C61.6393 28.8205 61.4593 28.0938 61.0993 27.4005C60.7393 26.6938 60.1793 26.1205 59.4193 25.6805C58.6726 25.2272 57.7126 25.0005 56.5393 25.0005C55.3659 25.0005 54.3526 25.2538 53.4993 25.7605C52.6593 26.2538 52.0126 26.9672 51.5593 27.9005C51.1193 28.8338 50.8993 29.9605 50.8993 31.2805C50.8993 32.6405 51.1126 33.8072 51.5393 34.7805C51.9793 35.7405 52.6259 36.4805 53.4793 37.0005C54.3459 37.5205 55.4193 37.7805 56.6993 37.7805C57.5259 37.7805 58.2393 37.7072 58.8393 37.5605C59.4393 37.4005 59.9259 37.2005 60.2993 36.9605C60.6859 36.7205 60.9793 36.4538 61.1793 36.1605C61.3793 35.8672 61.4993 35.5805 61.5393 35.3005H67.6593C67.5793 36.1938 67.2726 37.0738 66.7393 37.9405C66.2059 38.7938 65.4659 39.5672 64.5193 40.2605C63.5726 40.9405 62.4193 41.4805 61.0593 41.8805C59.7126 42.2805 58.1726 42.4805 56.4393 42.4805C54.0926 42.4805 52.0459 42.0138 50.2993 41.0805C48.5526 40.1338 47.1993 38.8338 46.2393 37.1805C45.2793 35.5138 44.7993 33.5938 44.7993 31.4205C44.7993 29.2205 45.2859 27.2938 46.2593 25.6405C47.2459 23.9738 48.6126 22.6805 50.3593 21.7605C52.1193 20.8272 54.1526 20.3605 56.4593 20.3605C58.8193 20.3605 60.8593 20.8338 62.5793 21.7805C64.2993 22.7138 65.6259 24.0272 66.5593 25.7205C67.4926 27.4005 67.9593 29.3605 67.9593 31.6005C67.9593 31.9338 67.9526 32.2538 67.9393 32.5605C67.9259 32.8672 67.9059 33.0938 67.8793 33.2405H48.1593ZM79.034 42.4405C77.4873 42.4405 76.1073 42.1938 74.894 41.7005C73.694 41.2072 72.754 40.4938 72.074 39.5605C71.394 38.6272 71.054 37.4938 71.054 36.1605C71.054 34.6538 71.4673 33.4272 72.294 32.4805C73.1206 31.5338 74.214 30.8138 75.574 30.3205C76.9473 29.8138 78.434 29.4805 80.034 29.3205C82.3673 29.0938 83.974 28.8872 84.854 28.7005C85.7473 28.5138 86.194 28.1872 86.194 27.7205C86.194 27.7072 86.194 27.6938 86.194 27.6805C86.194 26.8938 85.814 26.2738 85.054 25.8205C84.3073 25.3672 83.2606 25.1405 81.914 25.1405C80.4873 25.1405 79.394 25.4005 78.634 25.9205C77.8873 26.4272 77.514 27.2072 77.514 28.2605H71.414C71.414 26.5538 71.874 25.1138 72.794 23.9405C73.7273 22.7672 74.9873 21.8805 76.574 21.2805C78.1606 20.6672 79.954 20.3605 81.954 20.3605C83.8206 20.3605 85.5473 20.6472 87.134 21.2205C88.7206 21.7805 89.994 22.6272 90.954 23.7605C91.9273 24.8938 92.414 26.3338 92.414 28.0805C92.414 28.3605 92.414 28.6405 92.414 28.9205C92.414 29.1872 92.414 29.4605 92.414 29.7405V37.2605C92.414 37.8072 92.4273 38.3338 92.454 38.8405C92.494 39.3338 92.574 39.7872 92.694 40.2005C92.8273 40.6672 92.994 41.0538 93.194 41.3605C93.394 41.6672 93.5606 41.8805 93.694 42.0005H87.594C87.5006 41.9072 87.354 41.7138 87.154 41.4205C86.9673 41.1272 86.8073 40.7872 86.674 40.4005C86.514 39.9338 86.394 39.4672 86.314 39.0005C86.2473 38.5205 86.214 37.9605 86.214 37.3205L87.494 38.2005C87.1206 39.0805 86.514 39.8405 85.674 40.4805C84.8473 41.1072 83.8606 41.5938 82.714 41.9405C81.5806 42.2738 80.354 42.4405 79.034 42.4405ZM80.694 37.8005C81.6673 37.8005 82.574 37.6272 83.414 37.2805C84.2673 36.9205 84.9606 36.3605 85.494 35.6005C86.0273 34.8405 86.294 33.8472 86.294 32.6205V30.4805L87.834 31.9805C86.954 32.3005 85.934 32.5672 84.774 32.7805C83.6273 32.9805 82.4806 33.1405 81.334 33.2605C79.974 33.3938 78.954 33.6272 78.274 33.9605C77.6073 34.2805 77.274 34.8272 77.274 35.6005C77.274 36.3338 77.5606 36.8872 78.134 37.2605C78.7073 37.6205 79.5606 37.8005 80.694 37.8005ZM106.923 42.4405C106.109 42.4405 105.269 42.3672 104.403 42.2205C103.549 42.0872 102.749 41.8138 102.003 41.4005C101.269 40.9738 100.676 40.3538 100.223 39.5405C99.7691 38.7272 99.5424 37.6538 99.5424 36.3205C99.5424 36.0272 99.5424 35.7272 99.5424 35.4205C99.5424 35.1138 99.5424 34.8072 99.5424 34.5005V25.5605H94.6424V20.7605H96.0224C96.8224 20.7605 97.4557 20.7272 97.9224 20.6605C98.4024 20.5938 98.7557 20.4272 98.9824 20.1605C99.2224 19.8805 99.3757 19.4472 99.4424 18.8605C99.5091 18.2738 99.5424 17.4672 99.5424 16.4405V13.7605H105.763V20.7605H111.943V25.5605H105.763V33.2005C105.763 33.4405 105.763 33.6738 105.763 33.9005C105.763 34.1272 105.763 34.3472 105.763 34.5605C105.763 35.4805 105.869 36.2272 106.083 36.8005C106.309 37.3738 106.863 37.6605 107.743 37.6605C108.183 37.6605 108.596 37.6205 108.983 37.5405C109.383 37.4605 109.683 37.3805 109.883 37.3005V41.9605C109.603 42.0805 109.209 42.1872 108.703 42.2805C108.196 42.3872 107.603 42.4405 106.923 42.4405ZM115.461 42.0005V20.7605H121.601V42.0005H115.461ZM118.521 17.3005C117.561 17.3005 116.721 17.0472 116.001 16.5405C115.295 16.0338 114.941 15.3205 114.941 14.4005C114.941 13.4672 115.295 12.7472 116.001 12.2405C116.721 11.7338 117.561 11.4805 118.521 11.4805C119.495 11.4805 120.335 11.7338 121.041 12.2405C121.761 12.7472 122.121 13.4672 122.121 14.4005C122.121 15.3338 121.761 16.0538 121.041 16.5605C120.335 17.0538 119.495 17.3005 118.521 17.3005ZM141.13 42.0005V32.9805C141.13 32.4738 141.13 32.0138 141.13 31.6005C141.13 31.1872 141.13 30.8138 141.13 30.4805C141.13 29.6005 141.017 28.8005 140.79 28.0805C140.563 27.3472 140.157 26.7605 139.57 26.3205C138.983 25.8805 138.137 25.6605 137.03 25.6605C136.07 25.6605 135.237 25.8805 134.53 26.3205C133.837 26.7605 133.303 27.3738 132.93 28.1605C132.557 28.9472 132.37 29.8538 132.37 30.8805L130.65 29.6405C130.65 27.8005 131.05 26.1872 131.85 24.8005C132.65 23.4138 133.73 22.3272 135.09 21.5405C136.463 20.7538 137.983 20.3605 139.65 20.3605C141.397 20.3605 142.83 20.7138 143.95 21.4205C145.083 22.1138 145.923 23.0872 146.47 24.3405C147.03 25.5805 147.31 27.0338 147.31 28.7005C147.31 29.3805 147.31 30.1405 147.31 30.9805C147.31 31.8205 147.31 32.6805 147.31 33.5605V42.0005H141.13ZM126.17 42.0005V20.7605H132.37V42.0005H126.17ZM162.591 42.4605C160.298 42.4605 158.278 41.9872 156.531 41.0405C154.785 40.0938 153.418 38.7938 152.431 37.1405C151.458 35.4738 150.971 33.5538 150.971 31.3805C150.971 29.2205 151.458 27.3138 152.431 25.6605C153.418 23.9938 154.785 22.7005 156.531 21.7805C158.278 20.8472 160.298 20.3805 162.591 20.3805C164.885 20.3805 166.905 20.8472 168.651 21.7805C170.398 22.7005 171.758 23.9938 172.731 25.6605C173.718 27.3138 174.211 29.2205 174.211 31.3805C174.211 33.5538 173.718 35.4738 172.731 37.1405C171.758 38.7938 170.398 40.0938 168.651 41.0405C166.905 41.9872 164.885 42.4605 162.591 42.4605ZM162.591 37.5405C163.671 37.5405 164.611 37.2872 165.411 36.7805C166.211 36.2738 166.831 35.5605 167.271 34.6405C167.711 33.7072 167.931 32.6205 167.931 31.3805C167.931 30.1405 167.711 29.0672 167.271 28.1605C166.831 27.2405 166.211 26.5338 165.411 26.0405C164.611 25.5472 163.671 25.3005 162.591 25.3005C161.525 25.3005 160.585 25.5472 159.771 26.0405C158.971 26.5338 158.351 27.2405 157.911 28.1605C157.471 29.0672 157.251 30.1405 157.251 31.3805C157.251 32.6205 157.471 33.7072 157.911 34.6405C158.351 35.5605 158.971 36.2738 159.771 36.7805C160.585 37.2872 161.525 37.5405 162.591 37.5405Z" fill="white"/>
<path d="M208.799 15.2321L208.798 16.7687C204.475 17.9291 201.908 22.3739 203.064 26.699L201.733 27.466C200.149 25.8836 198.074 25.0932 195.999 25.0932C193.923 25.0932 191.848 25.8836 190.265 27.466L188.935 26.6967C190.092 22.3723 187.524 17.9268 183.201 16.7662L183.202 15.2308C187.525 14.0695 190.092 9.62472 188.936 5.29992L190.266 4.5332C191.85 6.11528 193.925 6.90728 196.001 6.90728C198.076 6.90728 200.151 6.11528 201.735 4.5332L203.065 5.30184C201.908 9.62728 204.475 14.0718 208.799 15.2321ZM200.67 7.92104C199.242 8.6532 197.651 9.04072 196 9.04072C194.35 9.04072 192.758 8.65224 191.332 7.91976C191.161 11.1937 189.414 14.2167 186.663 15.9988C189.415 17.7809 191.161 20.8052 191.33 24.0788C192.757 23.3476 194.348 22.9601 195.999 22.9601C197.65 22.9601 199.241 23.3476 200.669 24.0798C200.839 20.8065 202.586 17.7831 205.336 15.9998C202.585 14.2177 200.839 11.1947 200.67 7.92104Z" fill="#BDD239"/>
</svg>
